;TYPE=PLATED
;Layer: PTH_Through_Via
;EasyEDA Pro v3.2.149, 2026-09-21 22:33:03
;Gerber Generator version 0.3
M48
METRIC,LZ,0000.00000
;Hole size 1 = 0.30500 METRIC
T01C0.30500
%
G05
G90
T01
X7.874Y24.765
X3.937Y32.512
X5.207Y32.512
X8.001Y32.512
X9.398Y32.512
X10.795Y32.512
X1.651Y24.638
X2.794Y24.638
X3.937Y24.638
X6.604Y32.512
X1.651Y25.781
X2.794Y25.781
X3.937Y25.781
X7.874Y25.781
X7.874Y26.797
X2.794Y26.797
X1.651Y26.797
X1.651Y27.813
X2.794Y27.813
X1.651Y28.956
X2.794Y28.956
X7.874Y28.956
X6.731Y28.956
X6.731Y24.765
X6.731Y25.781
X6.731Y26.797
X6.731Y27.813
X7.874Y27.813
X3.937Y26.797
X3.937Y27.813
X3.937Y28.956
X5.334Y28.956
X3.937Y33.655
X5.207Y33.655
X9.398Y33.655
X10.795Y33.655
X3.937Y34.798
X5.207Y34.798
X9.398Y34.798
X10.795Y34.798
X3.937Y35.941
X5.207Y35.941
X9.398Y35.941
X10.795Y35.941
X3.937Y37.084
X5.207Y37.084
X6.604Y37.084
X8.001Y37.084
X9.398Y37.084
X10.795Y37.084
X11.557Y28.956
X16.129Y25.781
X16.129Y27.813
X16.129Y28.956
X14.986Y24.765
X14.986Y25.781
X14.986Y27.813
X14.986Y28.956
X13.843Y24.765
X13.843Y25.781
X16.129Y24.765
X12.7Y28.956
X13.843Y27.813
X12.7Y24.765
X11.557Y24.765
X13.843Y28.956
X10.414Y25.781
X10.414Y26.797
X10.414Y27.813
X10.414Y24.765
X10.414Y28.956
X10.414Y17.907
X10.414Y18.923
X10.414Y20.066
X10.414Y22.225
X11.557Y17.907
X11.557Y22.225
X12.7Y17.907
X12.7Y18.923
X12.7Y22.225
X12.7Y20.066
X11.557Y20.066
X11.557Y18.923
X14.986Y17.907
X16.129Y17.907
X13.843Y17.907
X13.843Y20.066
X13.843Y18.923
X16.129Y22.225
X14.986Y22.225
X13.843Y22.225
X27.94Y14.859
X29.083Y14.859
X30.226Y14.859
X27.94Y15.875
X29.083Y15.875
X30.226Y15.875
X27.94Y13.843
X29.083Y13.843
X30.226Y13.843
X31.369Y13.843
X31.369Y14.859
X31.369Y15.875
X31.369Y16.891
X31.369Y17.907
X31.369Y18.923
X31.369Y20.04112
X31.369Y21.05712
X31.369Y22.098
X27.94Y21.06956
X27.94Y22.11044
X27.94Y20.05356
X30.226Y21.06956
X30.226Y22.11044
X30.226Y20.05356
M30