G04 Layer: DrillDrawingLayer*
G04 EasyEDA Pro v3.2.149, 2026-09-21 22:33:03*
G04 Gerber Generator version 0.3*
G04 Scale: 100 percent, Rotated: No, Reflected: No*
G04 Dimensions in millimeters*
G04 Leading zeros omitted, absolute positions, 4 integers and 5 decimals*
G04 Generated by one-click*
G04 Object Configs: Pad,Via,Track,Text,Image,Dimension,BoardOutline,BoardCutout,CopperFilled,SolidRegion,FPCStiffener,Line,PlaneZone,ComponentProperty,ComponentSilkscreen,TearDrop*
G04 Layer Configs: 1,2,3,4,5,6,7,8,9,10,11,13,14,56*
G04 Copper Areas: 0*
%FSLAX45Y45*%
%MOMM*%
%AMIconRect*4,1,4,0.28,-0.28,-0.28,-0.28,-0.28,0.28,0.28,0.28,0.28,-0.28,0*4,0,4,0.233333,-0.233333,0.233333,0.233333,-0.233333,0.233333,-0.233333,-0.233333,0.233333,-0.233333,0*%
%AMIconTriangle*4,1,3,-0.339593,0.240473,0.339593,0.240473,0,-0.37884,-0.339593,0.240473,0*4,0,3,-0.265673,0.19404,0,-0.27342,0.266233,0.19404,-0.265673,0.19404,0*%
%AMIconStar6*4,1,12,0.12068,0.20888,0.298527,0.172713,0.241313,0,0.298527,-0.17206,0.12068,-0.208227,0,-0.344073,-0.120073,-0.208227,-0.298573,-0.17206,-0.240707,0,-0.298573,0.17206,-0.120073,0.20888,0,0.344073,0.12068,0.20888,0*4,0,12,-0.000467,0.273467,-0.090067,0.171733,-0.237533,0.136733,-0.193667,-0.007467,-0.237533,-0.1372,-0.090067,-0.171733,-0.000467,-0.273933,0.090067,-0.171733,0.237533,-0.1372,0.194133,0.007,0.237533,0.1372,0.090067,0.171267,-0.000467,0.273467,0*%
%AMIconStar4*4,1,8,-0.311733,0.311733,0,0.202533,0.311733,0.311733,0.202533,0,0.311733,-0.311733,0,-0.202533,-0.304407,-0.311733,-0.202533,0,-0.311733,0.311733,0*4,0,8,0.233333,-0.233333,0.1512,0,0.233333,0.233333,0,0.1512,-0.233333,0.233333,-0.1512,0,-0.233333,-0.233333,0,-0.1512,0.233333,-0.233333,0*%
%AMIconPlus*4,1,12,0.1736,-0.28,-0.1736,-0.28,-0.1736,-0.1736,-0.28,-0.1736,-0.28,0.1736,-0.1736,0.1736,-0.1736,0.28,0.1736,0.28,0.1736,0.1736,0.28,0.1736,0.28,-0.1736,0.1736,-0.1736,0.1736,-0.28,0*4,0,12,0.126933,-0.233333,0.126933,-0.126933,0.233333,-0.126933,0.233333,0.126933,0.126933,0.126933,0.126933,0.233333,-0.126933,0.233333,-0.126933,0.126933,-0.233333,0.126933,-0.233333,-0.126933,-0.126933,-0.126933,-0.126933,-0.233333,0.126933,-0.233333,0*%
%ADD10IconRect*%
%ADD11C,0.616X0.522667*%
%ADD12IconTriangle*%
%ADD13IconStar6*%
%ADD14IconStar4*%
%ADD15IconPlus*%
%ADD16C,0.2032*%
%ADD17C,0.254*%
G75*


G04 Drill Drawing Start*
G54D10*
G01X2298700Y2298700D03*
G54D11*
G01X900000Y900000D03*
G01X3700000Y3700000D03*
G54D12*
G01X1917700Y2044700D03*
G01X2552700Y1790700D03*
G54D13*
G01X528993Y3086100D03*
G01X1128992Y3086100D03*
G54D14*
G01X1917700Y2044700D03*
G01X2552700Y1790700D03*
G54D15*
G01X165100Y2463800D03*
G01X165100Y2578100D03*
G01X165100Y2679700D03*
G01X165100Y2781300D03*
G01X165100Y2895600D03*
G01X279400Y2463800D03*
G01X279400Y2578100D03*
G01X279400Y2679700D03*
G01X279400Y2781300D03*
G01X279400Y2895600D03*
G01X393700Y2463800D03*
G01X393700Y2578100D03*
G01X393700Y2679700D03*
G01X393700Y2781300D03*
G01X393700Y2895600D03*
G01X393700Y3251200D03*
G01X393700Y3365500D03*
G01X393700Y3479800D03*
G01X393700Y3594100D03*
G01X393700Y3708400D03*
G01X520700Y3251200D03*
G01X520700Y3365500D03*
G01X520700Y3479800D03*
G01X520700Y3594100D03*
G01X520700Y3708400D03*
G01X533400Y2895600D03*
G01X660400Y3251200D03*
G01X660400Y3708400D03*
G01X673100Y2476500D03*
G01X673100Y2578100D03*
G01X673100Y2679700D03*
G01X673100Y2781300D03*
G01X673100Y2895600D03*
G01X787400Y2476500D03*
G01X787400Y2578100D03*
G01X787400Y2679700D03*
G01X787400Y2781300D03*
G01X787400Y2895600D03*
G01X800100Y3251200D03*
G01X800100Y3708400D03*
G01X939800Y3251200D03*
G01X939800Y3365500D03*
G01X939800Y3479800D03*
G01X939800Y3594100D03*
G01X939800Y3708400D03*
G01X1041400Y1790700D03*
G01X1041400Y1892300D03*
G01X1041400Y2006600D03*
G01X1041400Y2222500D03*
G01X1041400Y2476500D03*
G01X1041400Y2578100D03*
G01X1041400Y2679700D03*
G01X1041400Y2781300D03*
G01X1041400Y2895600D03*
G01X1079500Y3251200D03*
G01X1079500Y3365500D03*
G01X1079500Y3479800D03*
G01X1079500Y3594100D03*
G01X1079500Y3708400D03*
G01X1155700Y1790700D03*
G01X1155700Y1892300D03*
G01X1155700Y2006600D03*
G01X1155700Y2222500D03*
G01X1155700Y2476500D03*
G01X1155700Y2895600D03*
G01X1270000Y1790700D03*
G01X1270000Y1892300D03*
G01X1270000Y2006600D03*
G01X1270000Y2222500D03*
G01X1270000Y2476500D03*
G01X1270000Y2895600D03*
G01X1384300Y1790700D03*
G01X1384300Y1892300D03*
G01X1384300Y2006600D03*
G01X1384300Y2222500D03*
G01X1384300Y2476500D03*
G01X1384300Y2578100D03*
G01X1384300Y2781300D03*
G01X1384300Y2895600D03*
G01X1498600Y1790700D03*
G01X1498600Y2222500D03*
G01X1498600Y2476500D03*
G01X1498600Y2578100D03*
G01X1498600Y2781300D03*
G01X1498600Y2895600D03*
G01X1612900Y1790700D03*
G01X1612900Y2222500D03*
G01X1612900Y2476500D03*
G01X1612900Y2578100D03*
G01X1612900Y2781300D03*
G01X1612900Y2895600D03*
G01X2794000Y1384300D03*
G01X2794000Y1485900D03*
G01X2794000Y1587500D03*
G01X2794000Y2005356D03*
G01X2794000Y2106956D03*
G01X2794000Y2211044D03*
G01X2908300Y1384300D03*
G01X2908300Y1485900D03*
G01X2908300Y1587500D03*
G01X3022600Y1384300D03*
G01X3022600Y1485900D03*
G01X3022600Y1587500D03*
G01X3022600Y2005356D03*
G01X3022600Y2106956D03*
G01X3022600Y2211044D03*
G01X3136900Y1384300D03*
G01X3136900Y1485900D03*
G01X3136900Y1587500D03*
G01X3136900Y1689100D03*
G01X3136900Y1790700D03*
G01X3136900Y1892300D03*
G01X3136900Y2004112D03*
G01X3136900Y2105712D03*
G01X3136900Y2209800D03*
G04 Drill Drawing End*

G04 Text Start*
G54D16*
G01X6900446Y4378294D02*
G01X6900446Y4258152D01*
G01X6900446Y4378294D02*
G01X6946166Y4258152D01*
G01X6991886Y4378294D02*
G01X6946166Y4258152D01*
G01X6991886Y4378294D02*
G01X6991886Y4258152D01*
G01X7108218Y4338162D02*
G01X7108218Y4258152D01*
G01X7108218Y4321144D02*
G01X7096788Y4332574D01*
G01X7085358Y4338162D01*
G01X7068340Y4338162D01*
G01X7056910Y4332574D01*
G01X7045480Y4321144D01*
G01X7039638Y4303872D01*
G01X7039638Y4292442D01*
G01X7045480Y4275424D01*
G01X7056910Y4263994D01*
G01X7068340Y4258152D01*
G01X7085358Y4258152D01*
G01X7096788Y4263994D01*
G01X7108218Y4275424D01*
G01X7155970Y4338162D02*
G01X7155970Y4258152D01*
G01X7155970Y4303872D02*
G01X7161812Y4321144D01*
G01X7173242Y4332574D01*
G01X7184672Y4338162D01*
G01X7201690Y4338162D01*
G01X7249442Y4378294D02*
G01X7249442Y4258152D01*
G01X7306592Y4338162D02*
G01X7249442Y4281012D01*
G01X7272302Y4303872D02*
G01X7312434Y4258152D01*
G01X8437726Y4349592D02*
G01X8431884Y4361022D01*
G01X8420454Y4372452D01*
G01X8409024Y4378294D01*
G01X8386164Y4378294D01*
G01X8374734Y4372452D01*
G01X8363304Y4361022D01*
G01X8357716Y4349592D01*
G01X8351874Y4332574D01*
G01X8351874Y4303872D01*
G01X8357716Y4286854D01*
G01X8363304Y4275424D01*
G01X8374734Y4263994D01*
G01X8386164Y4258152D01*
G01X8409024Y4258152D01*
G01X8420454Y4263994D01*
G01X8431884Y4275424D01*
G01X8437726Y4286854D01*
G01X8514180Y4338162D02*
G01X8502750Y4332574D01*
G01X8491320Y4321144D01*
G01X8485478Y4303872D01*
G01X8485478Y4292442D01*
G01X8491320Y4275424D01*
G01X8502750Y4263994D01*
G01X8514180Y4258152D01*
G01X8531198Y4258152D01*
G01X8542628Y4263994D01*
G01X8554058Y4275424D01*
G01X8559900Y4292442D01*
G01X8559900Y4303872D01*
G01X8554058Y4321144D01*
G01X8542628Y4332574D01*
G01X8531198Y4338162D01*
G01X8514180Y4338162D01*
G01X8607652Y4338162D02*
G01X8607652Y4281012D01*
G01X8613494Y4263994D01*
G01X8624924Y4258152D01*
G01X8641942Y4258152D01*
G01X8653372Y4263994D01*
G01X8670644Y4281012D01*
G01X8670644Y4338162D02*
G01X8670644Y4258152D01*
G01X8718396Y4338162D02*
G01X8718396Y4258152D01*
G01X8718396Y4315302D02*
G01X8735668Y4332574D01*
G01X8747098Y4338162D01*
G01X8764116Y4338162D01*
G01X8775546Y4332574D01*
G01X8781388Y4315302D01*
G01X8781388Y4258152D01*
G01X8846412Y4378294D02*
G01X8846412Y4281012D01*
G01X8852000Y4263994D01*
G01X8863430Y4258152D01*
G01X8874860Y4258152D01*
G01X8829140Y4338162D02*
G01X8869272Y4338162D01*
G01X9846047Y4361022D02*
G01X9834617Y4372452D01*
G01X9817599Y4378294D01*
G01X9794739Y4378294D01*
G01X9777467Y4372452D01*
G01X9766037Y4361022D01*
G01X9766037Y4349592D01*
G01X9771879Y4338162D01*
G01X9777467Y4332574D01*
G01X9788897Y4326732D01*
G01X9823187Y4315302D01*
G01X9834617Y4309714D01*
G01X9840459Y4303872D01*
G01X9846047Y4292442D01*
G01X9846047Y4275424D01*
G01X9834617Y4263994D01*
G01X9817599Y4258152D01*
G01X9794739Y4258152D01*
G01X9777467Y4263994D01*
G01X9766037Y4275424D01*
G01X9893799Y4378294D02*
G01X9899641Y4372452D01*
G01X9905229Y4378294D01*
G01X9899641Y4383882D01*
G01X9893799Y4378294D01*
G01X9899641Y4338162D02*
G01X9899641Y4258152D01*
G01X10015973Y4338162D02*
G01X9952981Y4258152D01*
G01X9952981Y4338162D02*
G01X10015973Y4338162D01*
G01X9952981Y4258152D02*
G01X10015973Y4258152D01*
G01X10063725Y4303872D02*
G01X10132305Y4303872D01*
G01X10132305Y4315302D01*
G01X10126717Y4326732D01*
G01X10120875Y4332574D01*
G01X10109445Y4338162D01*
G01X10092427Y4338162D01*
G01X10080997Y4332574D01*
G01X10069567Y4321144D01*
G01X10063725Y4303872D01*
G01X10063725Y4292442D01*
G01X10069567Y4275424D01*
G01X10080997Y4263994D01*
G01X10092427Y4258152D01*
G01X10109445Y4258152D01*
G01X10120875Y4263994D01*
G01X10132305Y4275424D01*
G01X13846947Y4378294D02*
G01X13846947Y4258152D01*
G01X13846947Y4378294D02*
G01X13898509Y4378294D01*
G01X13915527Y4372452D01*
G01X13921369Y4366864D01*
G01X13926957Y4355434D01*
G01X13926957Y4338162D01*
G01X13921369Y4326732D01*
G01X13915527Y4321144D01*
G01X13898509Y4315302D01*
G01X13846947Y4315302D01*
G01X13974709Y4378294D02*
G01X13974709Y4258152D01*
G01X14091041Y4338162D02*
G01X14091041Y4258152D01*
G01X14091041Y4321144D02*
G01X14079611Y4332574D01*
G01X14068181Y4338162D01*
G01X14051163Y4338162D01*
G01X14039733Y4332574D01*
G01X14028303Y4321144D01*
G01X14022461Y4303872D01*
G01X14022461Y4292442D01*
G01X14028303Y4275424D01*
G01X14039733Y4263994D01*
G01X14051163Y4258152D01*
G01X14068181Y4258152D01*
G01X14079611Y4263994D01*
G01X14091041Y4275424D01*
G01X14156065Y4378294D02*
G01X14156065Y4281012D01*
G01X14161653Y4263994D01*
G01X14173083Y4258152D01*
G01X14184513Y4258152D01*
G01X14138793Y4338162D02*
G01X14178925Y4338162D01*
G01X14232265Y4303872D02*
G01X14300845Y4303872D01*
G01X14300845Y4315302D01*
G01X14295257Y4326732D01*
G01X14289415Y4332574D01*
G01X14277985Y4338162D01*
G01X14260967Y4338162D01*
G01X14249537Y4332574D01*
G01X14238107Y4321144D01*
G01X14232265Y4303872D01*
G01X14232265Y4292442D01*
G01X14238107Y4275424D01*
G01X14249537Y4263994D01*
G01X14260967Y4258152D01*
G01X14277985Y4258152D01*
G01X14289415Y4263994D01*
G01X14300845Y4275424D01*
G01X14417177Y4378294D02*
G01X14417177Y4258152D01*
G01X14417177Y4321144D02*
G01X14405747Y4332574D01*
G01X14394317Y4338162D01*
G01X14377299Y4338162D01*
G01X14365869Y4332574D01*
G01X14354439Y4321144D01*
G01X14348597Y4303872D01*
G01X14348597Y4292442D01*
G01X14354439Y4275424D01*
G01X14365869Y4263994D01*
G01X14377299Y4258152D01*
G01X14394317Y4258152D01*
G01X14405747Y4263994D01*
G01X14417177Y4275424D01*
G01X15388364Y4361022D02*
G01X15376934Y4372452D01*
G01X15359916Y4378294D01*
G01X15337056Y4378294D01*
G01X15319784Y4372452D01*
G01X15308354Y4361022D01*
G01X15308354Y4349592D01*
G01X15314196Y4338162D01*
G01X15319784Y4332574D01*
G01X15331214Y4326732D01*
G01X15365504Y4315302D01*
G01X15376934Y4309714D01*
G01X15382776Y4303872D01*
G01X15388364Y4292442D01*
G01X15388364Y4275424D01*
G01X15376934Y4263994D01*
G01X15359916Y4258152D01*
G01X15337056Y4258152D01*
G01X15319784Y4263994D01*
G01X15308354Y4275424D01*
G01X15436116Y4378294D02*
G01X15436116Y4258152D01*
G01X15436116Y4315302D02*
G01X15453388Y4332574D01*
G01X15464818Y4338162D01*
G01X15481836Y4338162D01*
G01X15493266Y4332574D01*
G01X15499108Y4315302D01*
G01X15499108Y4258152D01*
G01X15615440Y4338162D02*
G01X15615440Y4258152D01*
G01X15615440Y4321144D02*
G01X15604010Y4332574D01*
G01X15592580Y4338162D01*
G01X15575562Y4338162D01*
G01X15564132Y4332574D01*
G01X15552702Y4321144D01*
G01X15546860Y4303872D01*
G01X15546860Y4292442D01*
G01X15552702Y4275424D01*
G01X15564132Y4263994D01*
G01X15575562Y4258152D01*
G01X15592580Y4258152D01*
G01X15604010Y4263994D01*
G01X15615440Y4275424D01*
G01X15663192Y4338162D02*
G01X15663192Y4218274D01*
G01X15663192Y4321144D02*
G01X15674622Y4332574D01*
G01X15686052Y4338162D01*
G01X15703324Y4338162D01*
G01X15714754Y4332574D01*
G01X15726184Y4321144D01*
G01X15731772Y4303872D01*
G01X15731772Y4292442D01*
G01X15726184Y4275424D01*
G01X15714754Y4263994D01*
G01X15703324Y4258152D01*
G01X15686052Y4258152D01*
G01X15674622Y4263994D01*
G01X15663192Y4275424D01*
G01X15779524Y4303872D02*
G01X15848104Y4303872D01*
G01X15848104Y4315302D01*
G01X15842516Y4326732D01*
G01X15836674Y4332574D01*
G01X15825244Y4338162D01*
G01X15808226Y4338162D01*
G01X15796796Y4332574D01*
G01X15785366Y4321144D01*
G01X15779524Y4303872D01*
G01X15779524Y4292442D01*
G01X15785366Y4275424D01*
G01X15796796Y4263994D01*
G01X15808226Y4258152D01*
G01X15825244Y4258152D01*
G01X15836674Y4263994D01*
G01X15848104Y4275424D01*
G01X16739535Y4378294D02*
G01X16785255Y4258152D01*
G01X16830975Y4378294D02*
G01X16785255Y4258152D01*
G01X16878727Y4378294D02*
G01X16884569Y4372452D01*
G01X16890157Y4378294D01*
G01X16884569Y4383882D01*
G01X16878727Y4378294D01*
G01X16884569Y4338162D02*
G01X16884569Y4258152D01*
G01X17006489Y4338162D02*
G01X17006489Y4258152D01*
G01X17006489Y4321144D02*
G01X16995059Y4332574D01*
G01X16983629Y4338162D01*
G01X16966611Y4338162D01*
G01X16955181Y4332574D01*
G01X16943751Y4321144D01*
G01X16937909Y4303872D01*
G01X16937909Y4292442D01*
G01X16943751Y4275424D01*
G01X16955181Y4263994D01*
G01X16966611Y4258152D01*
G01X16983629Y4258152D01*
G01X16995059Y4263994D01*
G01X17006489Y4275424D01*
G01X17157111Y4401154D02*
G01X17054241Y4218274D01*
G01X17204863Y4378294D02*
G01X17204863Y4258152D01*
G01X17204863Y4378294D02*
G01X17256425Y4378294D01*
G01X17273443Y4372452D01*
G01X17279285Y4366864D01*
G01X17284873Y4355434D01*
G01X17284873Y4338162D01*
G01X17279285Y4326732D01*
G01X17273443Y4321144D01*
G01X17256425Y4315302D01*
G01X17204863Y4315302D01*
G01X17401205Y4338162D02*
G01X17401205Y4258152D01*
G01X17401205Y4321144D02*
G01X17389775Y4332574D01*
G01X17378345Y4338162D01*
G01X17361327Y4338162D01*
G01X17349897Y4332574D01*
G01X17338467Y4321144D01*
G01X17332625Y4303872D01*
G01X17332625Y4292442D01*
G01X17338467Y4275424D01*
G01X17349897Y4263994D01*
G01X17361327Y4258152D01*
G01X17378345Y4258152D01*
G01X17389775Y4263994D01*
G01X17401205Y4275424D01*
G01X17517537Y4378294D02*
G01X17517537Y4258152D01*
G01X17517537Y4321144D02*
G01X17506107Y4332574D01*
G01X17494677Y4338162D01*
G01X17477659Y4338162D01*
G01X17466229Y4332574D01*
G01X17454799Y4321144D01*
G01X17448957Y4303872D01*
G01X17448957Y4292442D01*
G01X17454799Y4275424D01*
G01X17466229Y4263994D01*
G01X17477659Y4258152D01*
G01X17494677Y4258152D01*
G01X17506107Y4263994D01*
G01X17517537Y4275424D01*
G01X18408714Y4378294D02*
G01X18408714Y4258152D01*
G01X18408714Y4378294D02*
G01X18460276Y4378294D01*
G01X18477294Y4372452D01*
G01X18483136Y4366864D01*
G01X18488724Y4355434D01*
G01X18488724Y4338162D01*
G01X18483136Y4326732D01*
G01X18477294Y4321144D01*
G01X18460276Y4315302D01*
G01X18408714Y4315302D01*
G01X18605056Y4338162D02*
G01X18605056Y4258152D01*
G01X18605056Y4321144D02*
G01X18593626Y4332574D01*
G01X18582196Y4338162D01*
G01X18565178Y4338162D01*
G01X18553748Y4332574D01*
G01X18542318Y4321144D01*
G01X18536476Y4303872D01*
G01X18536476Y4292442D01*
G01X18542318Y4275424D01*
G01X18553748Y4263994D01*
G01X18565178Y4258152D01*
G01X18582196Y4258152D01*
G01X18593626Y4263994D01*
G01X18605056Y4275424D01*
G01X18721388Y4378294D02*
G01X18721388Y4258152D01*
G01X18721388Y4321144D02*
G01X18709958Y4332574D01*
G01X18698528Y4338162D01*
G01X18681510Y4338162D01*
G01X18670080Y4332574D01*
G01X18658650Y4321144D01*
G01X18652808Y4303872D01*
G01X18652808Y4292442D01*
G01X18658650Y4275424D01*
G01X18670080Y4263994D01*
G01X18681510Y4258152D01*
G01X18698528Y4258152D01*
G01X18709958Y4263994D01*
G01X18721388Y4275424D01*
G01X18977166Y4361022D02*
G01X18965736Y4372452D01*
G01X18948718Y4378294D01*
G01X18925858Y4378294D01*
G01X18908586Y4372452D01*
G01X18897156Y4361022D01*
G01X18897156Y4349592D01*
G01X18902998Y4338162D01*
G01X18908586Y4332574D01*
G01X18920016Y4326732D01*
G01X18954306Y4315302D01*
G01X18965736Y4309714D01*
G01X18971578Y4303872D01*
G01X18977166Y4292442D01*
G01X18977166Y4275424D01*
G01X18965736Y4263994D01*
G01X18948718Y4258152D01*
G01X18925858Y4258152D01*
G01X18908586Y4263994D01*
G01X18897156Y4275424D01*
G01X19024918Y4378294D02*
G01X19024918Y4258152D01*
G01X19024918Y4315302D02*
G01X19042190Y4332574D01*
G01X19053620Y4338162D01*
G01X19070638Y4338162D01*
G01X19082068Y4332574D01*
G01X19087910Y4315302D01*
G01X19087910Y4258152D01*
G01X19204242Y4338162D02*
G01X19204242Y4258152D01*
G01X19204242Y4321144D02*
G01X19192812Y4332574D01*
G01X19181382Y4338162D01*
G01X19164364Y4338162D01*
G01X19152934Y4332574D01*
G01X19141504Y4321144D01*
G01X19135662Y4303872D01*
G01X19135662Y4292442D01*
G01X19141504Y4275424D01*
G01X19152934Y4263994D01*
G01X19164364Y4258152D01*
G01X19181382Y4258152D01*
G01X19192812Y4263994D01*
G01X19204242Y4275424D01*
G01X19251994Y4338162D02*
G01X19251994Y4218274D01*
G01X19251994Y4321144D02*
G01X19263424Y4332574D01*
G01X19274854Y4338162D01*
G01X19292126Y4338162D01*
G01X19303556Y4332574D01*
G01X19314986Y4321144D01*
G01X19320574Y4303872D01*
G01X19320574Y4292442D01*
G01X19314986Y4275424D01*
G01X19303556Y4263994D01*
G01X19292126Y4258152D01*
G01X19274854Y4258152D01*
G01X19263424Y4263994D01*
G01X19251994Y4275424D01*
G01X19368326Y4303872D02*
G01X19436906Y4303872D01*
G01X19436906Y4315302D01*
G01X19431318Y4326732D01*
G01X19425476Y4332574D01*
G01X19414046Y4338162D01*
G01X19397028Y4338162D01*
G01X19385598Y4332574D01*
G01X19374168Y4321144D01*
G01X19368326Y4303872D01*
G01X19368326Y4292442D01*
G01X19374168Y4275424D01*
G01X19385598Y4263994D01*
G01X19397028Y4258152D01*
G01X19414046Y4258152D01*
G01X19425476Y4263994D01*
G01X19436906Y4275424D01*
G01X20328083Y4378294D02*
G01X20328083Y4258152D01*
G01X20328083Y4258152D02*
G01X20396663Y4258152D01*
G01X20512995Y4338162D02*
G01X20512995Y4258152D01*
G01X20512995Y4321144D02*
G01X20501565Y4332574D01*
G01X20490135Y4338162D01*
G01X20473117Y4338162D01*
G01X20461687Y4332574D01*
G01X20450257Y4321144D01*
G01X20444415Y4303872D01*
G01X20444415Y4292442D01*
G01X20450257Y4275424D01*
G01X20461687Y4263994D01*
G01X20473117Y4258152D01*
G01X20490135Y4258152D01*
G01X20501565Y4263994D01*
G01X20512995Y4275424D01*
G01X20566589Y4338162D02*
G01X20600879Y4258152D01*
G01X20635169Y4338162D02*
G01X20600879Y4258152D01*
G01X20589449Y4235292D01*
G01X20578019Y4223862D01*
G01X20566589Y4218274D01*
G01X20560747Y4218274D01*
G01X20682921Y4303872D02*
G01X20751501Y4303872D01*
G01X20751501Y4315302D01*
G01X20745913Y4326732D01*
G01X20740071Y4332574D01*
G01X20728641Y4338162D01*
G01X20711623Y4338162D01*
G01X20700193Y4332574D01*
G01X20688763Y4321144D01*
G01X20682921Y4303872D01*
G01X20682921Y4292442D01*
G01X20688763Y4275424D01*
G01X20700193Y4263994D01*
G01X20711623Y4258152D01*
G01X20728641Y4258152D01*
G01X20740071Y4263994D01*
G01X20751501Y4275424D01*
G01X20799253Y4338162D02*
G01X20799253Y4258152D01*
G01X20799253Y4303872D02*
G01X20805095Y4321144D01*
G01X20816525Y4332574D01*
G01X20827955Y4338162D01*
G01X20844973Y4338162D01*
G01X21020741Y4378294D02*
G01X21020741Y4258152D01*
G01X21020741Y4378294D02*
G01X21072303Y4378294D01*
G01X21089321Y4372452D01*
G01X21095163Y4366864D01*
G01X21100751Y4355434D01*
G01X21100751Y4338162D01*
G01X21095163Y4326732D01*
G01X21089321Y4321144D01*
G01X21072303Y4315302D01*
G01X21020741Y4315302D01*
G01X21217083Y4338162D02*
G01X21217083Y4258152D01*
G01X21217083Y4321144D02*
G01X21205653Y4332574D01*
G01X21194223Y4338162D01*
G01X21177205Y4338162D01*
G01X21165775Y4332574D01*
G01X21154345Y4321144D01*
G01X21148503Y4303872D01*
G01X21148503Y4292442D01*
G01X21154345Y4275424D01*
G01X21165775Y4263994D01*
G01X21177205Y4258152D01*
G01X21194223Y4258152D01*
G01X21205653Y4263994D01*
G01X21217083Y4275424D01*
G01X21264835Y4378294D02*
G01X21270677Y4372452D01*
G01X21276265Y4378294D01*
G01X21270677Y4383882D01*
G01X21264835Y4378294D01*
G01X21270677Y4338162D02*
G01X21270677Y4258152D01*
G01X21324017Y4338162D02*
G01X21324017Y4258152D01*
G01X21324017Y4303872D02*
G01X21329859Y4321144D01*
G01X21341289Y4332574D01*
G01X21352719Y4338162D01*
G01X21369737Y4338162D01*
G01X8351874Y3774863D02*
G01X8363304Y3780451D01*
G01X8380576Y3797723D01*
G01X8380576Y3677581D01*
G01X9766037Y3774863D02*
G01X9777467Y3780451D01*
G01X9794739Y3797723D01*
G01X9794739Y3677581D01*
G01X9911071Y3780451D02*
G01X9905483Y3791881D01*
G01X9888211Y3797723D01*
G01X9876781Y3797723D01*
G01X9859763Y3791881D01*
G01X9848333Y3774863D01*
G01X9842491Y3746161D01*
G01X9842491Y3717713D01*
G01X9848333Y3694853D01*
G01X9859763Y3683423D01*
G01X9876781Y3677581D01*
G01X9882623Y3677581D01*
G01X9899641Y3683423D01*
G01X9911071Y3694853D01*
G01X9916913Y3711871D01*
G01X9916913Y3717713D01*
G01X9911071Y3734731D01*
G01X9899641Y3746161D01*
G01X9882623Y3752003D01*
G01X9876781Y3752003D01*
G01X9859763Y3746161D01*
G01X9848333Y3734731D01*
G01X9842491Y3717713D01*
G01X10033245Y3797723D02*
G01X9976095Y3797723D01*
G01X9970507Y3746161D01*
G01X9976095Y3752003D01*
G01X9993367Y3757591D01*
G01X10010385Y3757591D01*
G01X10027657Y3752003D01*
G01X10039087Y3740573D01*
G01X10044675Y3723301D01*
G01X10044675Y3711871D01*
G01X10039087Y3694853D01*
G01X10027657Y3683423D01*
G01X10010385Y3677581D01*
G01X9993367Y3677581D01*
G01X9976095Y3683423D01*
G01X9970507Y3689011D01*
G01X9964665Y3700441D01*
G01X10098269Y3706283D02*
G01X10092427Y3700441D01*
G01X10098269Y3694853D01*
G01X10103857Y3700441D01*
G01X10098269Y3706283D01*
G01X10208759Y3797723D02*
G01X10151609Y3717713D01*
G01X10237461Y3717713D01*
G01X10208759Y3797723D02*
G01X10208759Y3677581D01*
G01X10285213Y3757591D02*
G01X10285213Y3677581D01*
G01X10285213Y3734731D02*
G01X10302485Y3752003D01*
G01X10313915Y3757591D01*
G01X10330933Y3757591D01*
G01X10342363Y3752003D01*
G01X10348205Y3734731D01*
G01X10348205Y3677581D01*
G01X10348205Y3734731D02*
G01X10365223Y3752003D01*
G01X10376653Y3757591D01*
G01X10393925Y3757591D01*
G01X10405355Y3752003D01*
G01X10410943Y3734731D01*
G01X10410943Y3677581D01*
G01X10458695Y3797723D02*
G01X10464537Y3791881D01*
G01X10470125Y3797723D01*
G01X10464537Y3803311D01*
G01X10458695Y3797723D01*
G01X10464537Y3757591D02*
G01X10464537Y3677581D01*
G01X10517877Y3797723D02*
G01X10517877Y3677581D01*
G01X10605761Y3820583D02*
G01X10594331Y3809153D01*
G01X10582901Y3791881D01*
G01X10571471Y3769021D01*
G01X10565629Y3740573D01*
G01X10565629Y3717713D01*
G01X10571471Y3689011D01*
G01X10582901Y3666151D01*
G01X10594331Y3649133D01*
G01X10605761Y3637703D01*
G01X10710663Y3797723D02*
G01X10653513Y3717713D01*
G01X10739365Y3717713D01*
G01X10710663Y3797723D02*
G01X10710663Y3677581D01*
G01X10792959Y3706283D02*
G01X10787117Y3700441D01*
G01X10792959Y3694853D01*
G01X10798547Y3700441D01*
G01X10792959Y3706283D01*
G01X10852141Y3769021D02*
G01X10852141Y3774863D01*
G01X10857729Y3786293D01*
G01X10863571Y3791881D01*
G01X10875001Y3797723D01*
G01X10897861Y3797723D01*
G01X10909291Y3791881D01*
G01X10914879Y3786293D01*
G01X10920721Y3774863D01*
G01X10920721Y3763433D01*
G01X10914879Y3752003D01*
G01X10903449Y3734731D01*
G01X10846299Y3677581D01*
G01X10926309Y3677581D01*
G01X11008351Y3797723D02*
G01X10991333Y3791881D01*
G01X10979903Y3774863D01*
G01X10974061Y3746161D01*
G01X10974061Y3729143D01*
G01X10979903Y3700441D01*
G01X10991333Y3683423D01*
G01X11008351Y3677581D01*
G01X11019781Y3677581D01*
G01X11037053Y3683423D01*
G01X11048483Y3700441D01*
G01X11054071Y3729143D01*
G01X11054071Y3746161D01*
G01X11048483Y3774863D01*
G01X11037053Y3791881D01*
G01X11019781Y3797723D01*
G01X11008351Y3797723D01*
G01X11136113Y3797723D02*
G01X11119095Y3791881D01*
G01X11107665Y3774863D01*
G01X11101823Y3746161D01*
G01X11101823Y3729143D01*
G01X11107665Y3700441D01*
G01X11119095Y3683423D01*
G01X11136113Y3677581D01*
G01X11147543Y3677581D01*
G01X11164815Y3683423D01*
G01X11176245Y3700441D01*
G01X11181833Y3729143D01*
G01X11181833Y3746161D01*
G01X11176245Y3774863D01*
G01X11164815Y3791881D01*
G01X11147543Y3797723D01*
G01X11136113Y3797723D01*
G01X11229585Y3757591D02*
G01X11229585Y3677581D01*
G01X11229585Y3734731D02*
G01X11246857Y3752003D01*
G01X11258287Y3757591D01*
G01X11275305Y3757591D01*
G01X11286735Y3752003D01*
G01X11292577Y3734731D01*
G01X11292577Y3677581D01*
G01X11292577Y3734731D02*
G01X11309595Y3752003D01*
G01X11321025Y3757591D01*
G01X11338297Y3757591D01*
G01X11349727Y3752003D01*
G01X11355315Y3734731D01*
G01X11355315Y3677581D01*
G01X11403067Y3757591D02*
G01X11403067Y3677581D01*
G01X11403067Y3734731D02*
G01X11420339Y3752003D01*
G01X11431769Y3757591D01*
G01X11448787Y3757591D01*
G01X11460217Y3752003D01*
G01X11466059Y3734731D01*
G01X11466059Y3677581D01*
G01X11466059Y3734731D02*
G01X11483077Y3752003D01*
G01X11494507Y3757591D01*
G01X11511779Y3757591D01*
G01X11523209Y3752003D01*
G01X11528797Y3734731D01*
G01X11528797Y3677581D01*
G01X11576549Y3820583D02*
G01X11587979Y3809153D01*
G01X11599409Y3791881D01*
G01X11610839Y3769021D01*
G01X11616681Y3740573D01*
G01X11616681Y3717713D01*
G01X11610839Y3689011D01*
G01X11599409Y3666151D01*
G01X11587979Y3649133D01*
G01X11576549Y3637703D01*
G01X13846947Y3797723D02*
G01X13846947Y3677581D01*
G01X13846947Y3797723D02*
G01X13926957Y3677581D01*
G01X13926957Y3797723D02*
G01X13926957Y3677581D01*
G01X13974709Y3797723D02*
G01X13974709Y3677581D01*
G01X13974709Y3797723D02*
G01X14026271Y3797723D01*
G01X14043289Y3791881D01*
G01X14049131Y3786293D01*
G01X14054719Y3774863D01*
G01X14054719Y3757591D01*
G01X14049131Y3746161D01*
G01X14043289Y3740573D01*
G01X14026271Y3734731D01*
G01X13974709Y3734731D01*
G01X14142603Y3797723D02*
G01X14142603Y3677581D01*
G01X14102471Y3797723D02*
G01X14182481Y3797723D01*
G01X14230233Y3797723D02*
G01X14230233Y3677581D01*
G01X14310243Y3797723D02*
G01X14310243Y3677581D01*
G01X14230233Y3740573D02*
G01X14310243Y3740573D01*
G01X15308354Y3797723D02*
G01X15308354Y3677581D01*
G01X15308354Y3797723D02*
G01X15359916Y3797723D01*
G01X15376934Y3791881D01*
G01X15382776Y3786293D01*
G01X15388364Y3774863D01*
G01X15388364Y3763433D01*
G01X15382776Y3752003D01*
G01X15376934Y3746161D01*
G01X15359916Y3740573D01*
G01X15308354Y3740573D01*
G01X15348486Y3740573D02*
G01X15388364Y3677581D01*
G01X15464818Y3757591D02*
G01X15453388Y3752003D01*
G01X15441958Y3740573D01*
G01X15436116Y3723301D01*
G01X15436116Y3711871D01*
G01X15441958Y3694853D01*
G01X15453388Y3683423D01*
G01X15464818Y3677581D01*
G01X15481836Y3677581D01*
G01X15493266Y3683423D01*
G01X15504696Y3694853D01*
G01X15510538Y3711871D01*
G01X15510538Y3723301D01*
G01X15504696Y3740573D01*
G01X15493266Y3752003D01*
G01X15481836Y3757591D01*
G01X15464818Y3757591D01*
G01X15558290Y3757591D02*
G01X15558290Y3700441D01*
G01X15564132Y3683423D01*
G01X15575562Y3677581D01*
G01X15592580Y3677581D01*
G01X15604010Y3683423D01*
G01X15621282Y3700441D01*
G01X15621282Y3757591D02*
G01X15621282Y3677581D01*
G01X15669034Y3757591D02*
G01X15669034Y3677581D01*
G01X15669034Y3734731D02*
G01X15686306Y3752003D01*
G01X15697736Y3757591D01*
G01X15714754Y3757591D01*
G01X15726184Y3752003D01*
G01X15732026Y3734731D01*
G01X15732026Y3677581D01*
G01X15848358Y3797723D02*
G01X15848358Y3677581D01*
G01X15848358Y3740573D02*
G01X15836928Y3752003D01*
G01X15825498Y3757591D01*
G01X15808480Y3757591D01*
G01X15797050Y3752003D01*
G01X15785620Y3740573D01*
G01X15779778Y3723301D01*
G01X15779778Y3711871D01*
G01X15785620Y3694853D01*
G01X15797050Y3683423D01*
G01X15808480Y3677581D01*
G01X15825498Y3677581D01*
G01X15836928Y3683423D01*
G01X15848358Y3694853D01*
G01X16739535Y3797723D02*
G01X16785255Y3677581D01*
G01X16830975Y3797723D02*
G01X16785255Y3677581D01*
G01X16878727Y3797723D02*
G01X16884569Y3791881D01*
G01X16890157Y3797723D01*
G01X16884569Y3803311D01*
G01X16878727Y3797723D01*
G01X16884569Y3757591D02*
G01X16884569Y3677581D01*
G01X17006489Y3757591D02*
G01X17006489Y3677581D01*
G01X17006489Y3740573D02*
G01X16995059Y3752003D01*
G01X16983629Y3757591D01*
G01X16966611Y3757591D01*
G01X16955181Y3752003D01*
G01X16943751Y3740573D01*
G01X16937909Y3723301D01*
G01X16937909Y3711871D01*
G01X16943751Y3694853D01*
G01X16955181Y3683423D01*
G01X16966611Y3677581D01*
G01X16983629Y3677581D01*
G01X16995059Y3683423D01*
G01X17006489Y3694853D01*
G01X20368215Y3797723D02*
G01X20368215Y3677581D01*
G01X20328083Y3797723D02*
G01X20408093Y3797723D01*
G01X20484547Y3757591D02*
G01X20473117Y3752003D01*
G01X20461687Y3740573D01*
G01X20455845Y3723301D01*
G01X20455845Y3711871D01*
G01X20461687Y3694853D01*
G01X20473117Y3683423D01*
G01X20484547Y3677581D01*
G01X20501565Y3677581D01*
G01X20512995Y3683423D01*
G01X20524425Y3694853D01*
G01X20530267Y3711871D01*
G01X20530267Y3723301D01*
G01X20524425Y3740573D01*
G01X20512995Y3752003D01*
G01X20501565Y3757591D01*
G01X20484547Y3757591D01*
G01X20578019Y3757591D02*
G01X20578019Y3637703D01*
G01X20578019Y3740573D02*
G01X20589449Y3752003D01*
G01X20600879Y3757591D01*
G01X20618151Y3757591D01*
G01X20629581Y3752003D01*
G01X20641011Y3740573D01*
G01X20646599Y3723301D01*
G01X20646599Y3711871D01*
G01X20641011Y3694853D01*
G01X20629581Y3683423D01*
G01X20618151Y3677581D01*
G01X20600879Y3677581D01*
G01X20589449Y3683423D01*
G01X20578019Y3694853D01*
G01X20822367Y3797723D02*
G01X20822367Y3677581D01*
G01X20822367Y3677581D02*
G01X20890947Y3677581D01*
G01X21007279Y3757591D02*
G01X21007279Y3677581D01*
G01X21007279Y3740573D02*
G01X20995849Y3752003D01*
G01X20984419Y3757591D01*
G01X20967401Y3757591D01*
G01X20955971Y3752003D01*
G01X20944541Y3740573D01*
G01X20938699Y3723301D01*
G01X20938699Y3711871D01*
G01X20944541Y3694853D01*
G01X20955971Y3683423D01*
G01X20967401Y3677581D01*
G01X20984419Y3677581D01*
G01X20995849Y3683423D01*
G01X21007279Y3694853D01*
G01X21060873Y3757591D02*
G01X21095163Y3677581D01*
G01X21129453Y3757591D02*
G01X21095163Y3677581D01*
G01X21083733Y3654721D01*
G01X21072303Y3643291D01*
G01X21060873Y3637703D01*
G01X21055031Y3637703D01*
G01X21177205Y3723301D02*
G01X21245785Y3723301D01*
G01X21245785Y3734731D01*
G01X21240197Y3746161D01*
G01X21234355Y3752003D01*
G01X21222925Y3757591D01*
G01X21205907Y3757591D01*
G01X21194477Y3752003D01*
G01X21183047Y3740573D01*
G01X21177205Y3723301D01*
G01X21177205Y3711871D01*
G01X21183047Y3694853D01*
G01X21194477Y3683423D01*
G01X21205907Y3677581D01*
G01X21222925Y3677581D01*
G01X21234355Y3683423D01*
G01X21245785Y3694853D01*
G01X21293537Y3757591D02*
G01X21293537Y3677581D01*
G01X21293537Y3723301D02*
G01X21299379Y3740573D01*
G01X21310809Y3752003D01*
G01X21322239Y3757591D01*
G01X21339257Y3757591D01*
G01X21387009Y3729143D02*
G01X21489879Y3729143D01*
G01X21537631Y3797723D02*
G01X21537631Y3677581D01*
G01X21537631Y3797723D02*
G01X21589193Y3797723D01*
G01X21606211Y3791881D01*
G01X21612053Y3786293D01*
G01X21617641Y3774863D01*
G01X21617641Y3763433D01*
G01X21612053Y3752003D01*
G01X21606211Y3746161D01*
G01X21589193Y3740573D01*
G01X21537631Y3740573D02*
G01X21589193Y3740573D01*
G01X21606211Y3734731D01*
G01X21612053Y3729143D01*
G01X21617641Y3717713D01*
G01X21617641Y3700441D01*
G01X21612053Y3689011D01*
G01X21606211Y3683423D01*
G01X21589193Y3677581D01*
G01X21537631Y3677581D01*
G01X21694095Y3757591D02*
G01X21682665Y3752003D01*
G01X21671235Y3740573D01*
G01X21665393Y3723301D01*
G01X21665393Y3711871D01*
G01X21671235Y3694853D01*
G01X21682665Y3683423D01*
G01X21694095Y3677581D01*
G01X21711113Y3677581D01*
G01X21722543Y3683423D01*
G01X21733973Y3694853D01*
G01X21739815Y3711871D01*
G01X21739815Y3723301D01*
G01X21733973Y3740573D01*
G01X21722543Y3752003D01*
G01X21711113Y3757591D01*
G01X21694095Y3757591D01*
G01X21804839Y3797723D02*
G01X21804839Y3700441D01*
G01X21810427Y3683423D01*
G01X21821857Y3677581D01*
G01X21833287Y3677581D01*
G01X21787567Y3757591D02*
G01X21827699Y3757591D01*
G01X21898311Y3797723D02*
G01X21898311Y3700441D01*
G01X21903899Y3683423D01*
G01X21915329Y3677581D01*
G01X21926759Y3677581D01*
G01X21881039Y3757591D02*
G01X21921171Y3757591D01*
G01X22003213Y3757591D02*
G01X21991783Y3752003D01*
G01X21980353Y3740573D01*
G01X21974511Y3723301D01*
G01X21974511Y3711871D01*
G01X21980353Y3694853D01*
G01X21991783Y3683423D01*
G01X22003213Y3677581D01*
G01X22020231Y3677581D01*
G01X22031661Y3683423D01*
G01X22043091Y3694853D01*
G01X22048933Y3711871D01*
G01X22048933Y3723301D01*
G01X22043091Y3740573D01*
G01X22031661Y3752003D01*
G01X22020231Y3757591D01*
G01X22003213Y3757591D01*
G01X22096685Y3757591D02*
G01X22096685Y3677581D01*
G01X22096685Y3734731D02*
G01X22113957Y3752003D01*
G01X22125387Y3757591D01*
G01X22142405Y3757591D01*
G01X22153835Y3752003D01*
G01X22159677Y3734731D01*
G01X22159677Y3677581D01*
G01X22159677Y3734731D02*
G01X22176695Y3752003D01*
G01X22188125Y3757591D01*
G01X22205397Y3757591D01*
G01X22216827Y3752003D01*
G01X22222415Y3734731D01*
G01X22222415Y3677581D01*
G01X22398183Y3797723D02*
G01X22398183Y3677581D01*
G01X22398183Y3677581D02*
G01X22466763Y3677581D01*
G01X22583095Y3757591D02*
G01X22583095Y3677581D01*
G01X22583095Y3740573D02*
G01X22571665Y3752003D01*
G01X22560235Y3757591D01*
G01X22543217Y3757591D01*
G01X22531787Y3752003D01*
G01X22520357Y3740573D01*
G01X22514515Y3723301D01*
G01X22514515Y3711871D01*
G01X22520357Y3694853D01*
G01X22531787Y3683423D01*
G01X22543217Y3677581D01*
G01X22560235Y3677581D01*
G01X22571665Y3683423D01*
G01X22583095Y3694853D01*
G01X22636689Y3757591D02*
G01X22670979Y3677581D01*
G01X22705269Y3757591D02*
G01X22670979Y3677581D01*
G01X22659549Y3654721D01*
G01X22648119Y3643291D01*
G01X22636689Y3637703D01*
G01X22630847Y3637703D01*
G01X22753021Y3723301D02*
G01X22821601Y3723301D01*
G01X22821601Y3734731D01*
G01X22816013Y3746161D01*
G01X22810171Y3752003D01*
G01X22798741Y3757591D01*
G01X22781723Y3757591D01*
G01X22770293Y3752003D01*
G01X22758863Y3740573D01*
G01X22753021Y3723301D01*
G01X22753021Y3711871D01*
G01X22758863Y3694853D01*
G01X22770293Y3683423D01*
G01X22781723Y3677581D01*
G01X22798741Y3677581D01*
G01X22810171Y3683423D01*
G01X22821601Y3694853D01*
G01X22869353Y3757591D02*
G01X22869353Y3677581D01*
G01X22869353Y3723301D02*
G01X22875195Y3740573D01*
G01X22886625Y3752003D01*
G01X22898055Y3757591D01*
G01X22915073Y3757591D01*
G01X8357716Y3188449D02*
G01X8357716Y3194291D01*
G01X8363304Y3205721D01*
G01X8369146Y3211309D01*
G01X8380576Y3217151D01*
G01X8403436Y3217151D01*
G01X8414866Y3211309D01*
G01X8420454Y3205721D01*
G01X8426296Y3194291D01*
G01X8426296Y3182861D01*
G01X8420454Y3171431D01*
G01X8409024Y3154159D01*
G01X8351874Y3097009D01*
G01X8431884Y3097009D01*
G01X9766037Y3194291D02*
G01X9777467Y3199879D01*
G01X9794739Y3217151D01*
G01X9794739Y3097009D01*
G01X9848333Y3188449D02*
G01X9848333Y3194291D01*
G01X9853921Y3205721D01*
G01X9859763Y3211309D01*
G01X9871193Y3217151D01*
G01X9894053Y3217151D01*
G01X9905483Y3211309D01*
G01X9911071Y3205721D01*
G01X9916913Y3194291D01*
G01X9916913Y3182861D01*
G01X9911071Y3171431D01*
G01X9899641Y3154159D01*
G01X9842491Y3097009D01*
G01X9922501Y3097009D01*
G01X10038833Y3199879D02*
G01X10033245Y3211309D01*
G01X10015973Y3217151D01*
G01X10004543Y3217151D01*
G01X9987525Y3211309D01*
G01X9976095Y3194291D01*
G01X9970253Y3165589D01*
G01X9970253Y3137141D01*
G01X9976095Y3114281D01*
G01X9987525Y3102851D01*
G01X10004543Y3097009D01*
G01X10010385Y3097009D01*
G01X10027403Y3102851D01*
G01X10038833Y3114281D01*
G01X10044675Y3131299D01*
G01X10044675Y3137141D01*
G01X10038833Y3154159D01*
G01X10027403Y3165589D01*
G01X10010385Y3171431D01*
G01X10004543Y3171431D01*
G01X9987525Y3165589D01*
G01X9976095Y3154159D01*
G01X9970253Y3137141D01*
G01X10098269Y3125711D02*
G01X10092427Y3119869D01*
G01X10098269Y3114281D01*
G01X10103857Y3119869D01*
G01X10098269Y3125711D01*
G01X10185899Y3217151D02*
G01X10168881Y3211309D01*
G01X10157451Y3194291D01*
G01X10151609Y3165589D01*
G01X10151609Y3148571D01*
G01X10157451Y3119869D01*
G01X10168881Y3102851D01*
G01X10185899Y3097009D01*
G01X10197329Y3097009D01*
G01X10214601Y3102851D01*
G01X10226031Y3119869D01*
G01X10231619Y3148571D01*
G01X10231619Y3165589D01*
G01X10226031Y3194291D01*
G01X10214601Y3211309D01*
G01X10197329Y3217151D01*
G01X10185899Y3217151D01*
G01X10279371Y3177019D02*
G01X10342363Y3097009D01*
G01X10342363Y3177019D02*
G01X10279371Y3097009D01*
G01X10395957Y3188449D02*
G01X10395957Y3194291D01*
G01X10401545Y3205721D01*
G01X10407387Y3211309D01*
G01X10418817Y3217151D01*
G01X10441677Y3217151D01*
G01X10453107Y3211309D01*
G01X10458695Y3205721D01*
G01X10464537Y3194291D01*
G01X10464537Y3182861D01*
G01X10458695Y3171431D01*
G01X10447265Y3154159D01*
G01X10390115Y3097009D01*
G01X10470125Y3097009D01*
G01X10529307Y3217151D02*
G01X10592299Y3217151D01*
G01X10558009Y3171431D01*
G01X10575027Y3171431D01*
G01X10586457Y3165589D01*
G01X10592299Y3160001D01*
G01X10597887Y3142729D01*
G01X10597887Y3131299D01*
G01X10592299Y3114281D01*
G01X10580869Y3102851D01*
G01X10563597Y3097009D01*
G01X10546579Y3097009D01*
G01X10529307Y3102851D01*
G01X10523719Y3108439D01*
G01X10517877Y3119869D01*
G01X10714219Y3199879D02*
G01X10708631Y3211309D01*
G01X10691359Y3217151D01*
G01X10679929Y3217151D01*
G01X10662911Y3211309D01*
G01X10651481Y3194291D01*
G01X10645639Y3165589D01*
G01X10645639Y3137141D01*
G01X10651481Y3114281D01*
G01X10662911Y3102851D01*
G01X10679929Y3097009D01*
G01X10685771Y3097009D01*
G01X10702789Y3102851D01*
G01X10714219Y3114281D01*
G01X10720061Y3131299D01*
G01X10720061Y3137141D01*
G01X10714219Y3154159D01*
G01X10702789Y3165589D01*
G01X10685771Y3171431D01*
G01X10679929Y3171431D01*
G01X10662911Y3165589D01*
G01X10651481Y3154159D01*
G01X10645639Y3137141D01*
G01X10773655Y3125711D02*
G01X10767813Y3119869D01*
G01X10773655Y3114281D01*
G01X10779243Y3119869D01*
G01X10773655Y3125711D01*
G01X10832837Y3188449D02*
G01X10832837Y3194291D01*
G01X10838425Y3205721D01*
G01X10844267Y3211309D01*
G01X10855697Y3217151D01*
G01X10878557Y3217151D01*
G01X10889987Y3211309D01*
G01X10895575Y3205721D01*
G01X10901417Y3194291D01*
G01X10901417Y3182861D01*
G01X10895575Y3171431D01*
G01X10884145Y3154159D01*
G01X10826995Y3097009D01*
G01X10907005Y3097009D01*
G01X10954757Y3177019D02*
G01X10954757Y3097009D01*
G01X10954757Y3154159D02*
G01X10972029Y3171431D01*
G01X10983459Y3177019D01*
G01X11000477Y3177019D01*
G01X11011907Y3171431D01*
G01X11017749Y3154159D01*
G01X11017749Y3097009D01*
G01X11017749Y3154159D02*
G01X11034767Y3171431D01*
G01X11046197Y3177019D01*
G01X11063469Y3177019D01*
G01X11074899Y3171431D01*
G01X11080487Y3154159D01*
G01X11080487Y3097009D01*
G01X11128239Y3217151D02*
G01X11134081Y3211309D01*
G01X11139669Y3217151D01*
G01X11134081Y3222739D01*
G01X11128239Y3217151D01*
G01X11134081Y3177019D02*
G01X11134081Y3097009D01*
G01X11187421Y3217151D02*
G01X11187421Y3097009D01*
G01X11275305Y3240011D02*
G01X11263875Y3228581D01*
G01X11252445Y3211309D01*
G01X11241015Y3188449D01*
G01X11235173Y3160001D01*
G01X11235173Y3137141D01*
G01X11241015Y3108439D01*
G01X11252445Y3085579D01*
G01X11263875Y3068561D01*
G01X11275305Y3057131D01*
G01X11334487Y3217151D02*
G01X11397479Y3217151D01*
G01X11363189Y3171431D01*
G01X11380207Y3171431D01*
G01X11391637Y3165589D01*
G01X11397479Y3160001D01*
G01X11403067Y3142729D01*
G01X11403067Y3131299D01*
G01X11397479Y3114281D01*
G01X11386049Y3102851D01*
G01X11368777Y3097009D01*
G01X11351759Y3097009D01*
G01X11334487Y3102851D01*
G01X11328899Y3108439D01*
G01X11323057Y3119869D01*
G01X11456661Y3125711D02*
G01X11450819Y3119869D01*
G01X11456661Y3114281D01*
G01X11462249Y3119869D01*
G01X11456661Y3125711D01*
G01X11515843Y3188449D02*
G01X11515843Y3194291D01*
G01X11521431Y3205721D01*
G01X11527273Y3211309D01*
G01X11538703Y3217151D01*
G01X11561563Y3217151D01*
G01X11572993Y3211309D01*
G01X11578581Y3205721D01*
G01X11584423Y3194291D01*
G01X11584423Y3182861D01*
G01X11578581Y3171431D01*
G01X11567151Y3154159D01*
G01X11510001Y3097009D01*
G01X11590011Y3097009D01*
G01X11672053Y3217151D02*
G01X11655035Y3211309D01*
G01X11643605Y3194291D01*
G01X11637763Y3165589D01*
G01X11637763Y3148571D01*
G01X11643605Y3119869D01*
G01X11655035Y3102851D01*
G01X11672053Y3097009D01*
G01X11683483Y3097009D01*
G01X11700755Y3102851D01*
G01X11712185Y3119869D01*
G01X11717773Y3148571D01*
G01X11717773Y3165589D01*
G01X11712185Y3194291D01*
G01X11700755Y3211309D01*
G01X11683483Y3217151D01*
G01X11672053Y3217151D01*
G01X11799815Y3217151D02*
G01X11782797Y3211309D01*
G01X11771367Y3194291D01*
G01X11765525Y3165589D01*
G01X11765525Y3148571D01*
G01X11771367Y3119869D01*
G01X11782797Y3102851D01*
G01X11799815Y3097009D01*
G01X11811245Y3097009D01*
G01X11828517Y3102851D01*
G01X11839947Y3119869D01*
G01X11845535Y3148571D01*
G01X11845535Y3165589D01*
G01X11839947Y3194291D01*
G01X11828517Y3211309D01*
G01X11811245Y3217151D01*
G01X11799815Y3217151D01*
G01X11893287Y3177019D02*
G01X11956279Y3097009D01*
G01X11956279Y3177019D02*
G01X11893287Y3097009D01*
G01X12072611Y3199879D02*
G01X12067023Y3211309D01*
G01X12049751Y3217151D01*
G01X12038321Y3217151D01*
G01X12021303Y3211309D01*
G01X12009873Y3194291D01*
G01X12004031Y3165589D01*
G01X12004031Y3137141D01*
G01X12009873Y3114281D01*
G01X12021303Y3102851D01*
G01X12038321Y3097009D01*
G01X12044163Y3097009D01*
G01X12061181Y3102851D01*
G01X12072611Y3114281D01*
G01X12078453Y3131299D01*
G01X12078453Y3137141D01*
G01X12072611Y3154159D01*
G01X12061181Y3165589D01*
G01X12044163Y3171431D01*
G01X12038321Y3171431D01*
G01X12021303Y3165589D01*
G01X12009873Y3154159D01*
G01X12004031Y3137141D01*
G01X12132047Y3125711D02*
G01X12126205Y3119869D01*
G01X12132047Y3114281D01*
G01X12137635Y3119869D01*
G01X12132047Y3125711D01*
G01X12219677Y3217151D02*
G01X12202659Y3211309D01*
G01X12191229Y3194291D01*
G01X12185387Y3165589D01*
G01X12185387Y3148571D01*
G01X12191229Y3119869D01*
G01X12202659Y3102851D01*
G01X12219677Y3097009D01*
G01X12231107Y3097009D01*
G01X12248379Y3102851D01*
G01X12259809Y3119869D01*
G01X12265397Y3148571D01*
G01X12265397Y3165589D01*
G01X12259809Y3194291D01*
G01X12248379Y3211309D01*
G01X12231107Y3217151D01*
G01X12219677Y3217151D01*
G01X12347439Y3217151D02*
G01X12330421Y3211309D01*
G01X12318991Y3194291D01*
G01X12313149Y3165589D01*
G01X12313149Y3148571D01*
G01X12318991Y3119869D01*
G01X12330421Y3102851D01*
G01X12347439Y3097009D01*
G01X12358869Y3097009D01*
G01X12376141Y3102851D01*
G01X12387571Y3119869D01*
G01X12393159Y3148571D01*
G01X12393159Y3165589D01*
G01X12387571Y3194291D01*
G01X12376141Y3211309D01*
G01X12358869Y3217151D01*
G01X12347439Y3217151D01*
G01X12475201Y3217151D02*
G01X12458183Y3211309D01*
G01X12446753Y3194291D01*
G01X12440911Y3165589D01*
G01X12440911Y3148571D01*
G01X12446753Y3119869D01*
G01X12458183Y3102851D01*
G01X12475201Y3097009D01*
G01X12486631Y3097009D01*
G01X12503903Y3102851D01*
G01X12515333Y3119869D01*
G01X12520921Y3148571D01*
G01X12520921Y3165589D01*
G01X12515333Y3194291D01*
G01X12503903Y3211309D01*
G01X12486631Y3217151D01*
G01X12475201Y3217151D01*
G01X12568673Y3177019D02*
G01X12568673Y3097009D01*
G01X12568673Y3154159D02*
G01X12585945Y3171431D01*
G01X12597375Y3177019D01*
G01X12614393Y3177019D01*
G01X12625823Y3171431D01*
G01X12631665Y3154159D01*
G01X12631665Y3097009D01*
G01X12631665Y3154159D02*
G01X12648683Y3171431D01*
G01X12660113Y3177019D01*
G01X12677385Y3177019D01*
G01X12688815Y3171431D01*
G01X12694403Y3154159D01*
G01X12694403Y3097009D01*
G01X12742155Y3177019D02*
G01X12742155Y3097009D01*
G01X12742155Y3154159D02*
G01X12759427Y3171431D01*
G01X12770857Y3177019D01*
G01X12787875Y3177019D01*
G01X12799305Y3171431D01*
G01X12805147Y3154159D01*
G01X12805147Y3097009D01*
G01X12805147Y3154159D02*
G01X12822165Y3171431D01*
G01X12833595Y3177019D01*
G01X12850867Y3177019D01*
G01X12862297Y3171431D01*
G01X12867885Y3154159D01*
G01X12867885Y3097009D01*
G01X12915637Y3240011D02*
G01X12927067Y3228581D01*
G01X12938497Y3211309D01*
G01X12949927Y3188449D01*
G01X12955769Y3160001D01*
G01X12955769Y3137141D01*
G01X12949927Y3108439D01*
G01X12938497Y3085579D01*
G01X12927067Y3068561D01*
G01X12915637Y3057131D01*
G01X13846947Y3217151D02*
G01X13846947Y3097009D01*
G01X13846947Y3217151D02*
G01X13898509Y3217151D01*
G01X13915527Y3211309D01*
G01X13921369Y3205721D01*
G01X13926957Y3194291D01*
G01X13926957Y3177019D01*
G01X13921369Y3165589D01*
G01X13915527Y3160001D01*
G01X13898509Y3154159D01*
G01X13846947Y3154159D01*
G01X14014841Y3217151D02*
G01X14014841Y3097009D01*
G01X13974709Y3217151D02*
G01X14054719Y3217151D01*
G01X14102471Y3217151D02*
G01X14102471Y3097009D01*
G01X14182481Y3217151D02*
G01X14182481Y3097009D01*
G01X14102471Y3160001D02*
G01X14182481Y3160001D01*
G01X15388364Y3199879D02*
G01X15376934Y3211309D01*
G01X15359916Y3217151D01*
G01X15337056Y3217151D01*
G01X15319784Y3211309D01*
G01X15308354Y3199879D01*
G01X15308354Y3188449D01*
G01X15314196Y3177019D01*
G01X15319784Y3171431D01*
G01X15331214Y3165589D01*
G01X15365504Y3154159D01*
G01X15376934Y3148571D01*
G01X15382776Y3142729D01*
G01X15388364Y3131299D01*
G01X15388364Y3114281D01*
G01X15376934Y3102851D01*
G01X15359916Y3097009D01*
G01X15337056Y3097009D01*
G01X15319784Y3102851D01*
G01X15308354Y3114281D01*
G01X15436116Y3217151D02*
G01X15436116Y3097009D01*
G01X15512570Y3177019D02*
G01X15501140Y3171431D01*
G01X15489710Y3160001D01*
G01X15483868Y3142729D01*
G01X15483868Y3131299D01*
G01X15489710Y3114281D01*
G01X15501140Y3102851D01*
G01X15512570Y3097009D01*
G01X15529588Y3097009D01*
G01X15541018Y3102851D01*
G01X15552448Y3114281D01*
G01X15558290Y3131299D01*
G01X15558290Y3142729D01*
G01X15552448Y3160001D01*
G01X15541018Y3171431D01*
G01X15529588Y3177019D01*
G01X15512570Y3177019D01*
G01X15623314Y3217151D02*
G01X15623314Y3119869D01*
G01X15628902Y3102851D01*
G01X15640332Y3097009D01*
G01X15651762Y3097009D01*
G01X15606042Y3177019D02*
G01X15646174Y3177019D01*
G01X16739535Y3217151D02*
G01X16739535Y3097009D01*
G01X16739535Y3217151D02*
G01X16791097Y3217151D01*
G01X16808115Y3211309D01*
G01X16813957Y3205721D01*
G01X16819545Y3194291D01*
G01X16819545Y3177019D01*
G01X16813957Y3165589D01*
G01X16808115Y3160001D01*
G01X16791097Y3154159D01*
G01X16739535Y3154159D01*
G01X16935877Y3177019D02*
G01X16935877Y3097009D01*
G01X16935877Y3160001D02*
G01X16924447Y3171431D01*
G01X16913017Y3177019D01*
G01X16895999Y3177019D01*
G01X16884569Y3171431D01*
G01X16873139Y3160001D01*
G01X16867297Y3142729D01*
G01X16867297Y3131299D01*
G01X16873139Y3114281D01*
G01X16884569Y3102851D01*
G01X16895999Y3097009D01*
G01X16913017Y3097009D01*
G01X16924447Y3102851D01*
G01X16935877Y3114281D01*
G01X17052209Y3217151D02*
G01X17052209Y3097009D01*
G01X17052209Y3160001D02*
G01X17040779Y3171431D01*
G01X17029349Y3177019D01*
G01X17012331Y3177019D01*
G01X17000901Y3171431D01*
G01X16989471Y3160001D01*
G01X16983629Y3142729D01*
G01X16983629Y3131299D01*
G01X16989471Y3114281D01*
G01X17000901Y3102851D01*
G01X17012331Y3097009D01*
G01X17029349Y3097009D01*
G01X17040779Y3102851D01*
G01X17052209Y3114281D01*
G01X18443004Y3217151D02*
G01X18431574Y3211309D01*
G01X18420144Y3199879D01*
G01X18414556Y3188449D01*
G01X18408714Y3171431D01*
G01X18408714Y3142729D01*
G01X18414556Y3125711D01*
G01X18420144Y3114281D01*
G01X18431574Y3102851D01*
G01X18443004Y3097009D01*
G01X18465864Y3097009D01*
G01X18477294Y3102851D01*
G01X18488724Y3114281D01*
G01X18494566Y3125711D01*
G01X18500154Y3142729D01*
G01X18500154Y3171431D01*
G01X18494566Y3188449D01*
G01X18488724Y3199879D01*
G01X18477294Y3211309D01*
G01X18465864Y3217151D01*
G01X18443004Y3217151D01*
G01X18547906Y3177019D02*
G01X18582196Y3097009D01*
G01X18616486Y3177019D02*
G01X18582196Y3097009D01*
G01X18732818Y3177019D02*
G01X18732818Y3097009D01*
G01X18732818Y3160001D02*
G01X18721388Y3171431D01*
G01X18709958Y3177019D01*
G01X18692940Y3177019D01*
G01X18681510Y3171431D01*
G01X18670080Y3160001D01*
G01X18664238Y3142729D01*
G01X18664238Y3131299D01*
G01X18670080Y3114281D01*
G01X18681510Y3102851D01*
G01X18692940Y3097009D01*
G01X18709958Y3097009D01*
G01X18721388Y3102851D01*
G01X18732818Y3114281D01*
G01X18780570Y3217151D02*
G01X18780570Y3097009D01*
G01X20368215Y3217151D02*
G01X20368215Y3097009D01*
G01X20328083Y3217151D02*
G01X20408093Y3217151D01*
G01X20484547Y3177019D02*
G01X20473117Y3171431D01*
G01X20461687Y3160001D01*
G01X20455845Y3142729D01*
G01X20455845Y3131299D01*
G01X20461687Y3114281D01*
G01X20473117Y3102851D01*
G01X20484547Y3097009D01*
G01X20501565Y3097009D01*
G01X20512995Y3102851D01*
G01X20524425Y3114281D01*
G01X20530267Y3131299D01*
G01X20530267Y3142729D01*
G01X20524425Y3160001D01*
G01X20512995Y3171431D01*
G01X20501565Y3177019D01*
G01X20484547Y3177019D01*
G01X20578019Y3177019D02*
G01X20578019Y3057131D01*
G01X20578019Y3160001D02*
G01X20589449Y3171431D01*
G01X20600879Y3177019D01*
G01X20618151Y3177019D01*
G01X20629581Y3171431D01*
G01X20641011Y3160001D01*
G01X20646599Y3142729D01*
G01X20646599Y3131299D01*
G01X20641011Y3114281D01*
G01X20629581Y3102851D01*
G01X20618151Y3097009D01*
G01X20600879Y3097009D01*
G01X20589449Y3102851D01*
G01X20578019Y3114281D01*
G01X20822367Y3217151D02*
G01X20822367Y3097009D01*
G01X20822367Y3097009D02*
G01X20890947Y3097009D01*
G01X21007279Y3177019D02*
G01X21007279Y3097009D01*
G01X21007279Y3160001D02*
G01X20995849Y3171431D01*
G01X20984419Y3177019D01*
G01X20967401Y3177019D01*
G01X20955971Y3171431D01*
G01X20944541Y3160001D01*
G01X20938699Y3142729D01*
G01X20938699Y3131299D01*
G01X20944541Y3114281D01*
G01X20955971Y3102851D01*
G01X20967401Y3097009D01*
G01X20984419Y3097009D01*
G01X20995849Y3102851D01*
G01X21007279Y3114281D01*
G01X21060873Y3177019D02*
G01X21095163Y3097009D01*
G01X21129453Y3177019D02*
G01X21095163Y3097009D01*
G01X21083733Y3074149D01*
G01X21072303Y3062719D01*
G01X21060873Y3057131D01*
G01X21055031Y3057131D01*
G01X21177205Y3142729D02*
G01X21245785Y3142729D01*
G01X21245785Y3154159D01*
G01X21240197Y3165589D01*
G01X21234355Y3171431D01*
G01X21222925Y3177019D01*
G01X21205907Y3177019D01*
G01X21194477Y3171431D01*
G01X21183047Y3160001D01*
G01X21177205Y3142729D01*
G01X21177205Y3131299D01*
G01X21183047Y3114281D01*
G01X21194477Y3102851D01*
G01X21205907Y3097009D01*
G01X21222925Y3097009D01*
G01X21234355Y3102851D01*
G01X21245785Y3114281D01*
G01X21293537Y3177019D02*
G01X21293537Y3097009D01*
G01X21293537Y3142729D02*
G01X21299379Y3160001D01*
G01X21310809Y3171431D01*
G01X21322239Y3177019D01*
G01X21339257Y3177019D01*
G01X21387009Y3148571D02*
G01X21489879Y3148571D01*
G01X21537631Y3217151D02*
G01X21537631Y3097009D01*
G01X21537631Y3217151D02*
G01X21589193Y3217151D01*
G01X21606211Y3211309D01*
G01X21612053Y3205721D01*
G01X21617641Y3194291D01*
G01X21617641Y3182861D01*
G01X21612053Y3171431D01*
G01X21606211Y3165589D01*
G01X21589193Y3160001D01*
G01X21537631Y3160001D02*
G01X21589193Y3160001D01*
G01X21606211Y3154159D01*
G01X21612053Y3148571D01*
G01X21617641Y3137141D01*
G01X21617641Y3119869D01*
G01X21612053Y3108439D01*
G01X21606211Y3102851D01*
G01X21589193Y3097009D01*
G01X21537631Y3097009D01*
G01X21694095Y3177019D02*
G01X21682665Y3171431D01*
G01X21671235Y3160001D01*
G01X21665393Y3142729D01*
G01X21665393Y3131299D01*
G01X21671235Y3114281D01*
G01X21682665Y3102851D01*
G01X21694095Y3097009D01*
G01X21711113Y3097009D01*
G01X21722543Y3102851D01*
G01X21733973Y3114281D01*
G01X21739815Y3131299D01*
G01X21739815Y3142729D01*
G01X21733973Y3160001D01*
G01X21722543Y3171431D01*
G01X21711113Y3177019D01*
G01X21694095Y3177019D01*
G01X21804839Y3217151D02*
G01X21804839Y3119869D01*
G01X21810427Y3102851D01*
G01X21821857Y3097009D01*
G01X21833287Y3097009D01*
G01X21787567Y3177019D02*
G01X21827699Y3177019D01*
G01X21898311Y3217151D02*
G01X21898311Y3119869D01*
G01X21903899Y3102851D01*
G01X21915329Y3097009D01*
G01X21926759Y3097009D01*
G01X21881039Y3177019D02*
G01X21921171Y3177019D01*
G01X22003213Y3177019D02*
G01X21991783Y3171431D01*
G01X21980353Y3160001D01*
G01X21974511Y3142729D01*
G01X21974511Y3131299D01*
G01X21980353Y3114281D01*
G01X21991783Y3102851D01*
G01X22003213Y3097009D01*
G01X22020231Y3097009D01*
G01X22031661Y3102851D01*
G01X22043091Y3114281D01*
G01X22048933Y3131299D01*
G01X22048933Y3142729D01*
G01X22043091Y3160001D01*
G01X22031661Y3171431D01*
G01X22020231Y3177019D01*
G01X22003213Y3177019D01*
G01X22096685Y3177019D02*
G01X22096685Y3097009D01*
G01X22096685Y3154159D02*
G01X22113957Y3171431D01*
G01X22125387Y3177019D01*
G01X22142405Y3177019D01*
G01X22153835Y3171431D01*
G01X22159677Y3154159D01*
G01X22159677Y3097009D01*
G01X22159677Y3154159D02*
G01X22176695Y3171431D01*
G01X22188125Y3177019D01*
G01X22205397Y3177019D01*
G01X22216827Y3171431D01*
G01X22222415Y3154159D01*
G01X22222415Y3097009D01*
G01X22398183Y3217151D02*
G01X22398183Y3097009D01*
G01X22398183Y3097009D02*
G01X22466763Y3097009D01*
G01X22583095Y3177019D02*
G01X22583095Y3097009D01*
G01X22583095Y3160001D02*
G01X22571665Y3171431D01*
G01X22560235Y3177019D01*
G01X22543217Y3177019D01*
G01X22531787Y3171431D01*
G01X22520357Y3160001D01*
G01X22514515Y3142729D01*
G01X22514515Y3131299D01*
G01X22520357Y3114281D01*
G01X22531787Y3102851D01*
G01X22543217Y3097009D01*
G01X22560235Y3097009D01*
G01X22571665Y3102851D01*
G01X22583095Y3114281D01*
G01X22636689Y3177019D02*
G01X22670979Y3097009D01*
G01X22705269Y3177019D02*
G01X22670979Y3097009D01*
G01X22659549Y3074149D01*
G01X22648119Y3062719D01*
G01X22636689Y3057131D01*
G01X22630847Y3057131D01*
G01X22753021Y3142729D02*
G01X22821601Y3142729D01*
G01X22821601Y3154159D01*
G01X22816013Y3165589D01*
G01X22810171Y3171431D01*
G01X22798741Y3177019D01*
G01X22781723Y3177019D01*
G01X22770293Y3171431D01*
G01X22758863Y3160001D01*
G01X22753021Y3142729D01*
G01X22753021Y3131299D01*
G01X22758863Y3114281D01*
G01X22770293Y3102851D01*
G01X22781723Y3097009D01*
G01X22798741Y3097009D01*
G01X22810171Y3102851D01*
G01X22821601Y3114281D01*
G01X22869353Y3177019D02*
G01X22869353Y3097009D01*
G01X22869353Y3142729D02*
G01X22875195Y3160001D01*
G01X22886625Y3171431D01*
G01X22898055Y3177019D01*
G01X22915073Y3177019D01*
G01X8357716Y2607878D02*
G01X8357716Y2613720D01*
G01X8363304Y2625150D01*
G01X8369146Y2630738D01*
G01X8380576Y2636580D01*
G01X8403436Y2636580D01*
G01X8414866Y2630738D01*
G01X8420454Y2625150D01*
G01X8426296Y2613720D01*
G01X8426296Y2602290D01*
G01X8420454Y2590860D01*
G01X8409024Y2573588D01*
G01X8351874Y2516438D01*
G01X8431884Y2516438D01*
G01X9834617Y2619308D02*
G01X9829029Y2630738D01*
G01X9811757Y2636580D01*
G01X9800327Y2636580D01*
G01X9783309Y2630738D01*
G01X9771879Y2613720D01*
G01X9766037Y2585018D01*
G01X9766037Y2556570D01*
G01X9771879Y2533710D01*
G01X9783309Y2522280D01*
G01X9800327Y2516438D01*
G01X9806169Y2516438D01*
G01X9823187Y2522280D01*
G01X9834617Y2533710D01*
G01X9840459Y2550728D01*
G01X9840459Y2556570D01*
G01X9834617Y2573588D01*
G01X9823187Y2585018D01*
G01X9806169Y2590860D01*
G01X9800327Y2590860D01*
G01X9783309Y2585018D01*
G01X9771879Y2573588D01*
G01X9766037Y2556570D01*
G01X9899641Y2636580D02*
G01X9962633Y2636580D01*
G01X9928343Y2590860D01*
G01X9945361Y2590860D01*
G01X9956791Y2585018D01*
G01X9962633Y2579430D01*
G01X9968221Y2562158D01*
G01X9968221Y2550728D01*
G01X9962633Y2533710D01*
G01X9951203Y2522280D01*
G01X9933931Y2516438D01*
G01X9916913Y2516438D01*
G01X9899641Y2522280D01*
G01X9894053Y2527868D01*
G01X9888211Y2539298D01*
G01X10021815Y2545140D02*
G01X10015973Y2539298D01*
G01X10021815Y2533710D01*
G01X10027403Y2539298D01*
G01X10021815Y2545140D01*
G01X10109445Y2636580D02*
G01X10092427Y2630738D01*
G01X10080997Y2613720D01*
G01X10075155Y2585018D01*
G01X10075155Y2568000D01*
G01X10080997Y2539298D01*
G01X10092427Y2522280D01*
G01X10109445Y2516438D01*
G01X10120875Y2516438D01*
G01X10138147Y2522280D01*
G01X10149577Y2539298D01*
G01X10155165Y2568000D01*
G01X10155165Y2585018D01*
G01X10149577Y2613720D01*
G01X10138147Y2630738D01*
G01X10120875Y2636580D01*
G01X10109445Y2636580D01*
G01X10202917Y2596448D02*
G01X10265909Y2516438D01*
G01X10265909Y2596448D02*
G01X10202917Y2516438D01*
G01X10382241Y2619308D02*
G01X10376653Y2630738D01*
G01X10359381Y2636580D01*
G01X10347951Y2636580D01*
G01X10330933Y2630738D01*
G01X10319503Y2613720D01*
G01X10313661Y2585018D01*
G01X10313661Y2556570D01*
G01X10319503Y2533710D01*
G01X10330933Y2522280D01*
G01X10347951Y2516438D01*
G01X10353793Y2516438D01*
G01X10370811Y2522280D01*
G01X10382241Y2533710D01*
G01X10388083Y2550728D01*
G01X10388083Y2556570D01*
G01X10382241Y2573588D01*
G01X10370811Y2585018D01*
G01X10353793Y2590860D01*
G01X10347951Y2590860D01*
G01X10330933Y2585018D01*
G01X10319503Y2573588D01*
G01X10313661Y2556570D01*
G01X10447265Y2636580D02*
G01X10510257Y2636580D01*
G01X10475967Y2590860D01*
G01X10492985Y2590860D01*
G01X10504415Y2585018D01*
G01X10510257Y2579430D01*
G01X10515845Y2562158D01*
G01X10515845Y2550728D01*
G01X10510257Y2533710D01*
G01X10498827Y2522280D01*
G01X10481555Y2516438D01*
G01X10464537Y2516438D01*
G01X10447265Y2522280D01*
G01X10441677Y2527868D01*
G01X10435835Y2539298D01*
G01X10569439Y2545140D02*
G01X10563597Y2539298D01*
G01X10569439Y2533710D01*
G01X10575027Y2539298D01*
G01X10569439Y2545140D01*
G01X10657069Y2636580D02*
G01X10640051Y2630738D01*
G01X10628621Y2613720D01*
G01X10622779Y2585018D01*
G01X10622779Y2568000D01*
G01X10628621Y2539298D01*
G01X10640051Y2522280D01*
G01X10657069Y2516438D01*
G01X10668499Y2516438D01*
G01X10685771Y2522280D01*
G01X10697201Y2539298D01*
G01X10702789Y2568000D01*
G01X10702789Y2585018D01*
G01X10697201Y2613720D01*
G01X10685771Y2630738D01*
G01X10668499Y2636580D01*
G01X10657069Y2636580D01*
G01X10750541Y2596448D02*
G01X10750541Y2516438D01*
G01X10750541Y2573588D02*
G01X10767813Y2590860D01*
G01X10779243Y2596448D01*
G01X10796261Y2596448D01*
G01X10807691Y2590860D01*
G01X10813533Y2573588D01*
G01X10813533Y2516438D01*
G01X10813533Y2573588D02*
G01X10830551Y2590860D01*
G01X10841981Y2596448D01*
G01X10859253Y2596448D01*
G01X10870683Y2590860D01*
G01X10876271Y2573588D01*
G01X10876271Y2516438D01*
G01X10924023Y2636580D02*
G01X10929865Y2630738D01*
G01X10935453Y2636580D01*
G01X10929865Y2642168D01*
G01X10924023Y2636580D01*
G01X10929865Y2596448D02*
G01X10929865Y2516438D01*
G01X10983205Y2636580D02*
G01X10983205Y2516438D01*
G01X11071089Y2659440D02*
G01X11059659Y2648010D01*
G01X11048229Y2630738D01*
G01X11036799Y2607878D01*
G01X11030957Y2579430D01*
G01X11030957Y2556570D01*
G01X11036799Y2527868D01*
G01X11048229Y2505008D01*
G01X11059659Y2487990D01*
G01X11071089Y2476560D01*
G01X11118841Y2613720D02*
G01X11130271Y2619308D01*
G01X11147543Y2636580D01*
G01X11147543Y2516438D01*
G01X11201137Y2545140D02*
G01X11195295Y2539298D01*
G01X11201137Y2533710D01*
G01X11206725Y2539298D01*
G01X11201137Y2545140D01*
G01X11323057Y2619308D02*
G01X11317469Y2630738D01*
G01X11300197Y2636580D01*
G01X11288767Y2636580D01*
G01X11271749Y2630738D01*
G01X11260319Y2613720D01*
G01X11254477Y2585018D01*
G01X11254477Y2556570D01*
G01X11260319Y2533710D01*
G01X11271749Y2522280D01*
G01X11288767Y2516438D01*
G01X11294609Y2516438D01*
G01X11311627Y2522280D01*
G01X11323057Y2533710D01*
G01X11328899Y2550728D01*
G01X11328899Y2556570D01*
G01X11323057Y2573588D01*
G01X11311627Y2585018D01*
G01X11294609Y2590860D01*
G01X11288767Y2590860D01*
G01X11271749Y2585018D01*
G01X11260319Y2573588D01*
G01X11254477Y2556570D01*
G01X11410941Y2636580D02*
G01X11393923Y2630738D01*
G01X11382493Y2613720D01*
G01X11376651Y2585018D01*
G01X11376651Y2568000D01*
G01X11382493Y2539298D01*
G01X11393923Y2522280D01*
G01X11410941Y2516438D01*
G01X11422371Y2516438D01*
G01X11439643Y2522280D01*
G01X11451073Y2539298D01*
G01X11456661Y2568000D01*
G01X11456661Y2585018D01*
G01X11451073Y2613720D01*
G01X11439643Y2630738D01*
G01X11422371Y2636580D01*
G01X11410941Y2636580D01*
G01X11538703Y2636580D02*
G01X11521685Y2630738D01*
G01X11510255Y2613720D01*
G01X11504413Y2585018D01*
G01X11504413Y2568000D01*
G01X11510255Y2539298D01*
G01X11521685Y2522280D01*
G01X11538703Y2516438D01*
G01X11550133Y2516438D01*
G01X11567405Y2522280D01*
G01X11578835Y2539298D01*
G01X11584423Y2568000D01*
G01X11584423Y2585018D01*
G01X11578835Y2613720D01*
G01X11567405Y2630738D01*
G01X11550133Y2636580D01*
G01X11538703Y2636580D01*
G01X11632175Y2596448D02*
G01X11695167Y2516438D01*
G01X11695167Y2596448D02*
G01X11632175Y2516438D01*
G01X11742919Y2613720D02*
G01X11754349Y2619308D01*
G01X11771621Y2636580D01*
G01X11771621Y2516438D01*
G01X11825215Y2545140D02*
G01X11819373Y2539298D01*
G01X11825215Y2533710D01*
G01X11830803Y2539298D01*
G01X11825215Y2545140D01*
G01X11947135Y2619308D02*
G01X11941547Y2630738D01*
G01X11924275Y2636580D01*
G01X11912845Y2636580D01*
G01X11895827Y2630738D01*
G01X11884397Y2613720D01*
G01X11878555Y2585018D01*
G01X11878555Y2556570D01*
G01X11884397Y2533710D01*
G01X11895827Y2522280D01*
G01X11912845Y2516438D01*
G01X11918687Y2516438D01*
G01X11935705Y2522280D01*
G01X11947135Y2533710D01*
G01X11952977Y2550728D01*
G01X11952977Y2556570D01*
G01X11947135Y2573588D01*
G01X11935705Y2585018D01*
G01X11918687Y2590860D01*
G01X11912845Y2590860D01*
G01X11895827Y2585018D01*
G01X11884397Y2573588D01*
G01X11878555Y2556570D01*
G01X12035019Y2636580D02*
G01X12018001Y2630738D01*
G01X12006571Y2613720D01*
G01X12000729Y2585018D01*
G01X12000729Y2568000D01*
G01X12006571Y2539298D01*
G01X12018001Y2522280D01*
G01X12035019Y2516438D01*
G01X12046449Y2516438D01*
G01X12063721Y2522280D01*
G01X12075151Y2539298D01*
G01X12080739Y2568000D01*
G01X12080739Y2585018D01*
G01X12075151Y2613720D01*
G01X12063721Y2630738D01*
G01X12046449Y2636580D01*
G01X12035019Y2636580D01*
G01X12162781Y2636580D02*
G01X12145763Y2630738D01*
G01X12134333Y2613720D01*
G01X12128491Y2585018D01*
G01X12128491Y2568000D01*
G01X12134333Y2539298D01*
G01X12145763Y2522280D01*
G01X12162781Y2516438D01*
G01X12174211Y2516438D01*
G01X12191483Y2522280D01*
G01X12202913Y2539298D01*
G01X12208501Y2568000D01*
G01X12208501Y2585018D01*
G01X12202913Y2613720D01*
G01X12191483Y2630738D01*
G01X12174211Y2636580D01*
G01X12162781Y2636580D01*
G01X12256253Y2596448D02*
G01X12256253Y2516438D01*
G01X12256253Y2573588D02*
G01X12273525Y2590860D01*
G01X12284955Y2596448D01*
G01X12301973Y2596448D01*
G01X12313403Y2590860D01*
G01X12319245Y2573588D01*
G01X12319245Y2516438D01*
G01X12319245Y2573588D02*
G01X12336263Y2590860D01*
G01X12347693Y2596448D01*
G01X12364965Y2596448D01*
G01X12376395Y2590860D01*
G01X12381983Y2573588D01*
G01X12381983Y2516438D01*
G01X12429735Y2596448D02*
G01X12429735Y2516438D01*
G01X12429735Y2573588D02*
G01X12447007Y2590860D01*
G01X12458437Y2596448D01*
G01X12475455Y2596448D01*
G01X12486885Y2590860D01*
G01X12492727Y2573588D01*
G01X12492727Y2516438D01*
G01X12492727Y2573588D02*
G01X12509745Y2590860D01*
G01X12521175Y2596448D01*
G01X12538447Y2596448D01*
G01X12549877Y2590860D01*
G01X12555465Y2573588D01*
G01X12555465Y2516438D01*
G01X12603217Y2659440D02*
G01X12614647Y2648010D01*
G01X12626077Y2630738D01*
G01X12637507Y2607878D01*
G01X12643349Y2579430D01*
G01X12643349Y2556570D01*
G01X12637507Y2527868D01*
G01X12626077Y2505008D01*
G01X12614647Y2487990D01*
G01X12603217Y2476560D01*
G01X13846947Y2636580D02*
G01X13846947Y2516438D01*
G01X13846947Y2636580D02*
G01X13898509Y2636580D01*
G01X13915527Y2630738D01*
G01X13921369Y2625150D01*
G01X13926957Y2613720D01*
G01X13926957Y2596448D01*
G01X13921369Y2585018D01*
G01X13915527Y2579430D01*
G01X13898509Y2573588D01*
G01X13846947Y2573588D01*
G01X14014841Y2636580D02*
G01X14014841Y2516438D01*
G01X13974709Y2636580D02*
G01X14054719Y2636580D01*
G01X14102471Y2636580D02*
G01X14102471Y2516438D01*
G01X14182481Y2636580D02*
G01X14182481Y2516438D01*
G01X14102471Y2579430D02*
G01X14182481Y2579430D01*
G01X15308354Y2636580D02*
G01X15308354Y2516438D01*
G01X15308354Y2636580D02*
G01X15359916Y2636580D01*
G01X15376934Y2630738D01*
G01X15382776Y2625150D01*
G01X15388364Y2613720D01*
G01X15388364Y2602290D01*
G01X15382776Y2590860D01*
G01X15376934Y2585018D01*
G01X15359916Y2579430D01*
G01X15308354Y2579430D01*
G01X15348486Y2579430D02*
G01X15388364Y2516438D01*
G01X15464818Y2596448D02*
G01X15453388Y2590860D01*
G01X15441958Y2579430D01*
G01X15436116Y2562158D01*
G01X15436116Y2550728D01*
G01X15441958Y2533710D01*
G01X15453388Y2522280D01*
G01X15464818Y2516438D01*
G01X15481836Y2516438D01*
G01X15493266Y2522280D01*
G01X15504696Y2533710D01*
G01X15510538Y2550728D01*
G01X15510538Y2562158D01*
G01X15504696Y2579430D01*
G01X15493266Y2590860D01*
G01X15481836Y2596448D01*
G01X15464818Y2596448D01*
G01X15558290Y2596448D02*
G01X15558290Y2539298D01*
G01X15564132Y2522280D01*
G01X15575562Y2516438D01*
G01X15592580Y2516438D01*
G01X15604010Y2522280D01*
G01X15621282Y2539298D01*
G01X15621282Y2596448D02*
G01X15621282Y2516438D01*
G01X15669034Y2596448D02*
G01X15669034Y2516438D01*
G01X15669034Y2573588D02*
G01X15686306Y2590860D01*
G01X15697736Y2596448D01*
G01X15714754Y2596448D01*
G01X15726184Y2590860D01*
G01X15732026Y2573588D01*
G01X15732026Y2516438D01*
G01X15848358Y2636580D02*
G01X15848358Y2516438D01*
G01X15848358Y2579430D02*
G01X15836928Y2590860D01*
G01X15825498Y2596448D01*
G01X15808480Y2596448D01*
G01X15797050Y2590860D01*
G01X15785620Y2579430D01*
G01X15779778Y2562158D01*
G01X15779778Y2550728D01*
G01X15785620Y2533710D01*
G01X15797050Y2522280D01*
G01X15808480Y2516438D01*
G01X15825498Y2516438D01*
G01X15836928Y2522280D01*
G01X15848358Y2533710D01*
G01X16739535Y2636580D02*
G01X16739535Y2516438D01*
G01X16739535Y2636580D02*
G01X16791097Y2636580D01*
G01X16808115Y2630738D01*
G01X16813957Y2625150D01*
G01X16819545Y2613720D01*
G01X16819545Y2596448D01*
G01X16813957Y2585018D01*
G01X16808115Y2579430D01*
G01X16791097Y2573588D01*
G01X16739535Y2573588D01*
G01X16935877Y2596448D02*
G01X16935877Y2516438D01*
G01X16935877Y2579430D02*
G01X16924447Y2590860D01*
G01X16913017Y2596448D01*
G01X16895999Y2596448D01*
G01X16884569Y2590860D01*
G01X16873139Y2579430D01*
G01X16867297Y2562158D01*
G01X16867297Y2550728D01*
G01X16873139Y2533710D01*
G01X16884569Y2522280D01*
G01X16895999Y2516438D01*
G01X16913017Y2516438D01*
G01X16924447Y2522280D01*
G01X16935877Y2533710D01*
G01X17052209Y2636580D02*
G01X17052209Y2516438D01*
G01X17052209Y2579430D02*
G01X17040779Y2590860D01*
G01X17029349Y2596448D01*
G01X17012331Y2596448D01*
G01X17000901Y2590860D01*
G01X16989471Y2579430D01*
G01X16983629Y2562158D01*
G01X16983629Y2550728D01*
G01X16989471Y2533710D01*
G01X17000901Y2522280D01*
G01X17012331Y2516438D01*
G01X17029349Y2516438D01*
G01X17040779Y2522280D01*
G01X17052209Y2533710D01*
G01X18408714Y2636580D02*
G01X18408714Y2516438D01*
G01X18408714Y2636580D02*
G01X18460276Y2636580D01*
G01X18477294Y2630738D01*
G01X18483136Y2625150D01*
G01X18488724Y2613720D01*
G01X18488724Y2602290D01*
G01X18483136Y2590860D01*
G01X18477294Y2585018D01*
G01X18460276Y2579430D01*
G01X18408714Y2579430D01*
G01X18448846Y2579430D02*
G01X18488724Y2516438D01*
G01X18565178Y2596448D02*
G01X18553748Y2590860D01*
G01X18542318Y2579430D01*
G01X18536476Y2562158D01*
G01X18536476Y2550728D01*
G01X18542318Y2533710D01*
G01X18553748Y2522280D01*
G01X18565178Y2516438D01*
G01X18582196Y2516438D01*
G01X18593626Y2522280D01*
G01X18605056Y2533710D01*
G01X18610898Y2550728D01*
G01X18610898Y2562158D01*
G01X18605056Y2579430D01*
G01X18593626Y2590860D01*
G01X18582196Y2596448D01*
G01X18565178Y2596448D01*
G01X18658650Y2596448D02*
G01X18658650Y2539298D01*
G01X18664492Y2522280D01*
G01X18675922Y2516438D01*
G01X18692940Y2516438D01*
G01X18704370Y2522280D01*
G01X18721642Y2539298D01*
G01X18721642Y2596448D02*
G01X18721642Y2516438D01*
G01X18769394Y2596448D02*
G01X18769394Y2516438D01*
G01X18769394Y2573588D02*
G01X18786666Y2590860D01*
G01X18798096Y2596448D01*
G01X18815114Y2596448D01*
G01X18826544Y2590860D01*
G01X18832386Y2573588D01*
G01X18832386Y2516438D01*
G01X18948718Y2636580D02*
G01X18948718Y2516438D01*
G01X18948718Y2579430D02*
G01X18937288Y2590860D01*
G01X18925858Y2596448D01*
G01X18908840Y2596448D01*
G01X18897410Y2590860D01*
G01X18885980Y2579430D01*
G01X18880138Y2562158D01*
G01X18880138Y2550728D01*
G01X18885980Y2533710D01*
G01X18897410Y2522280D01*
G01X18908840Y2516438D01*
G01X18925858Y2516438D01*
G01X18937288Y2522280D01*
G01X18948718Y2533710D01*
G01X20368215Y2636580D02*
G01X20368215Y2516438D01*
G01X20328083Y2636580D02*
G01X20408093Y2636580D01*
G01X20484547Y2596448D02*
G01X20473117Y2590860D01*
G01X20461687Y2579430D01*
G01X20455845Y2562158D01*
G01X20455845Y2550728D01*
G01X20461687Y2533710D01*
G01X20473117Y2522280D01*
G01X20484547Y2516438D01*
G01X20501565Y2516438D01*
G01X20512995Y2522280D01*
G01X20524425Y2533710D01*
G01X20530267Y2550728D01*
G01X20530267Y2562158D01*
G01X20524425Y2579430D01*
G01X20512995Y2590860D01*
G01X20501565Y2596448D01*
G01X20484547Y2596448D01*
G01X20578019Y2596448D02*
G01X20578019Y2476560D01*
G01X20578019Y2579430D02*
G01X20589449Y2590860D01*
G01X20600879Y2596448D01*
G01X20618151Y2596448D01*
G01X20629581Y2590860D01*
G01X20641011Y2579430D01*
G01X20646599Y2562158D01*
G01X20646599Y2550728D01*
G01X20641011Y2533710D01*
G01X20629581Y2522280D01*
G01X20618151Y2516438D01*
G01X20600879Y2516438D01*
G01X20589449Y2522280D01*
G01X20578019Y2533710D01*
G01X20822367Y2636580D02*
G01X20822367Y2516438D01*
G01X20822367Y2516438D02*
G01X20890947Y2516438D01*
G01X21007279Y2596448D02*
G01X21007279Y2516438D01*
G01X21007279Y2579430D02*
G01X20995849Y2590860D01*
G01X20984419Y2596448D01*
G01X20967401Y2596448D01*
G01X20955971Y2590860D01*
G01X20944541Y2579430D01*
G01X20938699Y2562158D01*
G01X20938699Y2550728D01*
G01X20944541Y2533710D01*
G01X20955971Y2522280D01*
G01X20967401Y2516438D01*
G01X20984419Y2516438D01*
G01X20995849Y2522280D01*
G01X21007279Y2533710D01*
G01X21060873Y2596448D02*
G01X21095163Y2516438D01*
G01X21129453Y2596448D02*
G01X21095163Y2516438D01*
G01X21083733Y2493578D01*
G01X21072303Y2482148D01*
G01X21060873Y2476560D01*
G01X21055031Y2476560D01*
G01X21177205Y2562158D02*
G01X21245785Y2562158D01*
G01X21245785Y2573588D01*
G01X21240197Y2585018D01*
G01X21234355Y2590860D01*
G01X21222925Y2596448D01*
G01X21205907Y2596448D01*
G01X21194477Y2590860D01*
G01X21183047Y2579430D01*
G01X21177205Y2562158D01*
G01X21177205Y2550728D01*
G01X21183047Y2533710D01*
G01X21194477Y2522280D01*
G01X21205907Y2516438D01*
G01X21222925Y2516438D01*
G01X21234355Y2522280D01*
G01X21245785Y2533710D01*
G01X21293537Y2596448D02*
G01X21293537Y2516438D01*
G01X21293537Y2562158D02*
G01X21299379Y2579430D01*
G01X21310809Y2590860D01*
G01X21322239Y2596448D01*
G01X21339257Y2596448D01*
G01X21387009Y2568000D02*
G01X21489879Y2568000D01*
G01X21537631Y2636580D02*
G01X21537631Y2516438D01*
G01X21537631Y2636580D02*
G01X21589193Y2636580D01*
G01X21606211Y2630738D01*
G01X21612053Y2625150D01*
G01X21617641Y2613720D01*
G01X21617641Y2602290D01*
G01X21612053Y2590860D01*
G01X21606211Y2585018D01*
G01X21589193Y2579430D01*
G01X21537631Y2579430D02*
G01X21589193Y2579430D01*
G01X21606211Y2573588D01*
G01X21612053Y2568000D01*
G01X21617641Y2556570D01*
G01X21617641Y2539298D01*
G01X21612053Y2527868D01*
G01X21606211Y2522280D01*
G01X21589193Y2516438D01*
G01X21537631Y2516438D01*
G01X21694095Y2596448D02*
G01X21682665Y2590860D01*
G01X21671235Y2579430D01*
G01X21665393Y2562158D01*
G01X21665393Y2550728D01*
G01X21671235Y2533710D01*
G01X21682665Y2522280D01*
G01X21694095Y2516438D01*
G01X21711113Y2516438D01*
G01X21722543Y2522280D01*
G01X21733973Y2533710D01*
G01X21739815Y2550728D01*
G01X21739815Y2562158D01*
G01X21733973Y2579430D01*
G01X21722543Y2590860D01*
G01X21711113Y2596448D01*
G01X21694095Y2596448D01*
G01X21804839Y2636580D02*
G01X21804839Y2539298D01*
G01X21810427Y2522280D01*
G01X21821857Y2516438D01*
G01X21833287Y2516438D01*
G01X21787567Y2596448D02*
G01X21827699Y2596448D01*
G01X21898311Y2636580D02*
G01X21898311Y2539298D01*
G01X21903899Y2522280D01*
G01X21915329Y2516438D01*
G01X21926759Y2516438D01*
G01X21881039Y2596448D02*
G01X21921171Y2596448D01*
G01X22003213Y2596448D02*
G01X21991783Y2590860D01*
G01X21980353Y2579430D01*
G01X21974511Y2562158D01*
G01X21974511Y2550728D01*
G01X21980353Y2533710D01*
G01X21991783Y2522280D01*
G01X22003213Y2516438D01*
G01X22020231Y2516438D01*
G01X22031661Y2522280D01*
G01X22043091Y2533710D01*
G01X22048933Y2550728D01*
G01X22048933Y2562158D01*
G01X22043091Y2579430D01*
G01X22031661Y2590860D01*
G01X22020231Y2596448D01*
G01X22003213Y2596448D01*
G01X22096685Y2596448D02*
G01X22096685Y2516438D01*
G01X22096685Y2573588D02*
G01X22113957Y2590860D01*
G01X22125387Y2596448D01*
G01X22142405Y2596448D01*
G01X22153835Y2590860D01*
G01X22159677Y2573588D01*
G01X22159677Y2516438D01*
G01X22159677Y2573588D02*
G01X22176695Y2590860D01*
G01X22188125Y2596448D01*
G01X22205397Y2596448D01*
G01X22216827Y2590860D01*
G01X22222415Y2573588D01*
G01X22222415Y2516438D01*
G01X22398183Y2636580D02*
G01X22398183Y2516438D01*
G01X22398183Y2516438D02*
G01X22466763Y2516438D01*
G01X22583095Y2596448D02*
G01X22583095Y2516438D01*
G01X22583095Y2579430D02*
G01X22571665Y2590860D01*
G01X22560235Y2596448D01*
G01X22543217Y2596448D01*
G01X22531787Y2590860D01*
G01X22520357Y2579430D01*
G01X22514515Y2562158D01*
G01X22514515Y2550728D01*
G01X22520357Y2533710D01*
G01X22531787Y2522280D01*
G01X22543217Y2516438D01*
G01X22560235Y2516438D01*
G01X22571665Y2522280D01*
G01X22583095Y2533710D01*
G01X22636689Y2596448D02*
G01X22670979Y2516438D01*
G01X22705269Y2596448D02*
G01X22670979Y2516438D01*
G01X22659549Y2493578D01*
G01X22648119Y2482148D01*
G01X22636689Y2476560D01*
G01X22630847Y2476560D01*
G01X22753021Y2562158D02*
G01X22821601Y2562158D01*
G01X22821601Y2573588D01*
G01X22816013Y2585018D01*
G01X22810171Y2590860D01*
G01X22798741Y2596448D01*
G01X22781723Y2596448D01*
G01X22770293Y2590860D01*
G01X22758863Y2579430D01*
G01X22753021Y2562158D01*
G01X22753021Y2550728D01*
G01X22758863Y2533710D01*
G01X22770293Y2522280D01*
G01X22781723Y2516438D01*
G01X22798741Y2516438D01*
G01X22810171Y2522280D01*
G01X22821601Y2533710D01*
G01X22869353Y2596448D02*
G01X22869353Y2516438D01*
G01X22869353Y2562158D02*
G01X22875195Y2579430D01*
G01X22886625Y2590860D01*
G01X22898055Y2596448D01*
G01X22915073Y2596448D01*
G01X8357716Y2027307D02*
G01X8357716Y2033149D01*
G01X8363304Y2044579D01*
G01X8369146Y2050167D01*
G01X8380576Y2056009D01*
G01X8403436Y2056009D01*
G01X8414866Y2050167D01*
G01X8420454Y2044579D01*
G01X8426296Y2033149D01*
G01X8426296Y2021719D01*
G01X8420454Y2010289D01*
G01X8409024Y1993017D01*
G01X8351874Y1935867D01*
G01X8431884Y1935867D01*
G01X9834617Y2056009D02*
G01X9777467Y2056009D01*
G01X9771879Y2004447D01*
G01X9777467Y2010289D01*
G01X9794739Y2015877D01*
G01X9811757Y2015877D01*
G01X9829029Y2010289D01*
G01X9840459Y1998859D01*
G01X9846047Y1981587D01*
G01X9846047Y1970157D01*
G01X9840459Y1953139D01*
G01X9829029Y1941709D01*
G01X9811757Y1935867D01*
G01X9794739Y1935867D01*
G01X9777467Y1941709D01*
G01X9771879Y1947297D01*
G01X9766037Y1958727D01*
G01X9893799Y2033149D02*
G01X9905229Y2038737D01*
G01X9922501Y2056009D01*
G01X9922501Y1935867D01*
G01X9976095Y1964569D02*
G01X9970253Y1958727D01*
G01X9976095Y1953139D01*
G01X9981683Y1958727D01*
G01X9976095Y1964569D01*
G01X10035277Y2027307D02*
G01X10035277Y2033149D01*
G01X10040865Y2044579D01*
G01X10046707Y2050167D01*
G01X10058137Y2056009D01*
G01X10080997Y2056009D01*
G01X10092427Y2050167D01*
G01X10098015Y2044579D01*
G01X10103857Y2033149D01*
G01X10103857Y2021719D01*
G01X10098015Y2010289D01*
G01X10086585Y1993017D01*
G01X10029435Y1935867D01*
G01X10109445Y1935867D01*
G01X10157197Y2015877D02*
G01X10157197Y1935867D01*
G01X10157197Y1993017D02*
G01X10174469Y2010289D01*
G01X10185899Y2015877D01*
G01X10202917Y2015877D01*
G01X10214347Y2010289D01*
G01X10220189Y1993017D01*
G01X10220189Y1935867D01*
G01X10220189Y1993017D02*
G01X10237207Y2010289D01*
G01X10248637Y2015877D01*
G01X10265909Y2015877D01*
G01X10277339Y2010289D01*
G01X10282927Y1993017D01*
G01X10282927Y1935867D01*
G01X10330679Y2056009D02*
G01X10336521Y2050167D01*
G01X10342109Y2056009D01*
G01X10336521Y2061597D01*
G01X10330679Y2056009D01*
G01X10336521Y2015877D02*
G01X10336521Y1935867D01*
G01X10389861Y2056009D02*
G01X10389861Y1935867D01*
G01X10477745Y2078869D02*
G01X10466315Y2067439D01*
G01X10454885Y2050167D01*
G01X10443455Y2027307D01*
G01X10437613Y1998859D01*
G01X10437613Y1975999D01*
G01X10443455Y1947297D01*
G01X10454885Y1924437D01*
G01X10466315Y1907419D01*
G01X10477745Y1895989D01*
G01X10525497Y2033149D02*
G01X10536927Y2038737D01*
G01X10554199Y2056009D01*
G01X10554199Y1935867D01*
G01X10607793Y1964569D02*
G01X10601951Y1958727D01*
G01X10607793Y1953139D01*
G01X10613381Y1958727D01*
G01X10607793Y1964569D01*
G01X10672563Y2056009D02*
G01X10735555Y2056009D01*
G01X10701265Y2010289D01*
G01X10718283Y2010289D01*
G01X10729713Y2004447D01*
G01X10735555Y1998859D01*
G01X10741143Y1981587D01*
G01X10741143Y1970157D01*
G01X10735555Y1953139D01*
G01X10724125Y1941709D01*
G01X10706853Y1935867D01*
G01X10689835Y1935867D01*
G01X10672563Y1941709D01*
G01X10666975Y1947297D01*
G01X10661133Y1958727D01*
G01X10823185Y2056009D02*
G01X10806167Y2050167D01*
G01X10794737Y2033149D01*
G01X10788895Y2004447D01*
G01X10788895Y1987429D01*
G01X10794737Y1958727D01*
G01X10806167Y1941709D01*
G01X10823185Y1935867D01*
G01X10834615Y1935867D01*
G01X10851887Y1941709D01*
G01X10863317Y1958727D01*
G01X10868905Y1987429D01*
G01X10868905Y2004447D01*
G01X10863317Y2033149D01*
G01X10851887Y2050167D01*
G01X10834615Y2056009D01*
G01X10823185Y2056009D01*
G01X10950947Y2056009D02*
G01X10933929Y2050167D01*
G01X10922499Y2033149D01*
G01X10916657Y2004447D01*
G01X10916657Y1987429D01*
G01X10922499Y1958727D01*
G01X10933929Y1941709D01*
G01X10950947Y1935867D01*
G01X10962377Y1935867D01*
G01X10979649Y1941709D01*
G01X10991079Y1958727D01*
G01X10996667Y1987429D01*
G01X10996667Y2004447D01*
G01X10991079Y2033149D01*
G01X10979649Y2050167D01*
G01X10962377Y2056009D01*
G01X10950947Y2056009D01*
G01X11044419Y2015877D02*
G01X11044419Y1935867D01*
G01X11044419Y1993017D02*
G01X11061691Y2010289D01*
G01X11073121Y2015877D01*
G01X11090139Y2015877D01*
G01X11101569Y2010289D01*
G01X11107411Y1993017D01*
G01X11107411Y1935867D01*
G01X11107411Y1993017D02*
G01X11124429Y2010289D01*
G01X11135859Y2015877D01*
G01X11153131Y2015877D01*
G01X11164561Y2010289D01*
G01X11170149Y1993017D01*
G01X11170149Y1935867D01*
G01X11217901Y2015877D02*
G01X11217901Y1935867D01*
G01X11217901Y1993017D02*
G01X11235173Y2010289D01*
G01X11246603Y2015877D01*
G01X11263621Y2015877D01*
G01X11275051Y2010289D01*
G01X11280893Y1993017D01*
G01X11280893Y1935867D01*
G01X11280893Y1993017D02*
G01X11297911Y2010289D01*
G01X11309341Y2015877D01*
G01X11326613Y2015877D01*
G01X11338043Y2010289D01*
G01X11343631Y1993017D01*
G01X11343631Y1935867D01*
G01X11391383Y2078869D02*
G01X11402813Y2067439D01*
G01X11414243Y2050167D01*
G01X11425673Y2027307D01*
G01X11431515Y1998859D01*
G01X11431515Y1975999D01*
G01X11425673Y1947297D01*
G01X11414243Y1924437D01*
G01X11402813Y1907419D01*
G01X11391383Y1895989D01*
G01X13846947Y2056009D02*
G01X13846947Y1935867D01*
G01X13846947Y2056009D02*
G01X13926957Y1935867D01*
G01X13926957Y2056009D02*
G01X13926957Y1935867D01*
G01X13974709Y2056009D02*
G01X13974709Y1935867D01*
G01X13974709Y2056009D02*
G01X14026271Y2056009D01*
G01X14043289Y2050167D01*
G01X14049131Y2044579D01*
G01X14054719Y2033149D01*
G01X14054719Y2015877D01*
G01X14049131Y2004447D01*
G01X14043289Y1998859D01*
G01X14026271Y1993017D01*
G01X13974709Y1993017D01*
G01X14142603Y2056009D02*
G01X14142603Y1935867D01*
G01X14102471Y2056009D02*
G01X14182481Y2056009D01*
G01X14230233Y2056009D02*
G01X14230233Y1935867D01*
G01X14310243Y2056009D02*
G01X14310243Y1935867D01*
G01X14230233Y1998859D02*
G01X14310243Y1998859D01*
G01X15308354Y2056009D02*
G01X15308354Y1935867D01*
G01X15308354Y2056009D02*
G01X15359916Y2056009D01*
G01X15376934Y2050167D01*
G01X15382776Y2044579D01*
G01X15388364Y2033149D01*
G01X15388364Y2021719D01*
G01X15382776Y2010289D01*
G01X15376934Y2004447D01*
G01X15359916Y1998859D01*
G01X15308354Y1998859D01*
G01X15348486Y1998859D02*
G01X15388364Y1935867D01*
G01X15464818Y2015877D02*
G01X15453388Y2010289D01*
G01X15441958Y1998859D01*
G01X15436116Y1981587D01*
G01X15436116Y1970157D01*
G01X15441958Y1953139D01*
G01X15453388Y1941709D01*
G01X15464818Y1935867D01*
G01X15481836Y1935867D01*
G01X15493266Y1941709D01*
G01X15504696Y1953139D01*
G01X15510538Y1970157D01*
G01X15510538Y1981587D01*
G01X15504696Y1998859D01*
G01X15493266Y2010289D01*
G01X15481836Y2015877D01*
G01X15464818Y2015877D01*
G01X15558290Y2015877D02*
G01X15558290Y1958727D01*
G01X15564132Y1941709D01*
G01X15575562Y1935867D01*
G01X15592580Y1935867D01*
G01X15604010Y1941709D01*
G01X15621282Y1958727D01*
G01X15621282Y2015877D02*
G01X15621282Y1935867D01*
G01X15669034Y2015877D02*
G01X15669034Y1935867D01*
G01X15669034Y1993017D02*
G01X15686306Y2010289D01*
G01X15697736Y2015877D01*
G01X15714754Y2015877D01*
G01X15726184Y2010289D01*
G01X15732026Y1993017D01*
G01X15732026Y1935867D01*
G01X15848358Y2056009D02*
G01X15848358Y1935867D01*
G01X15848358Y1998859D02*
G01X15836928Y2010289D01*
G01X15825498Y2015877D01*
G01X15808480Y2015877D01*
G01X15797050Y2010289D01*
G01X15785620Y1998859D01*
G01X15779778Y1981587D01*
G01X15779778Y1970157D01*
G01X15785620Y1953139D01*
G01X15797050Y1941709D01*
G01X15808480Y1935867D01*
G01X15825498Y1935867D01*
G01X15836928Y1941709D01*
G01X15848358Y1953139D01*
G01X16739535Y2056009D02*
G01X16785255Y1935867D01*
G01X16830975Y2056009D02*
G01X16785255Y1935867D01*
G01X16878727Y2056009D02*
G01X16884569Y2050167D01*
G01X16890157Y2056009D01*
G01X16884569Y2061597D01*
G01X16878727Y2056009D01*
G01X16884569Y2015877D02*
G01X16884569Y1935867D01*
G01X17006489Y2015877D02*
G01X17006489Y1935867D01*
G01X17006489Y1998859D02*
G01X16995059Y2010289D01*
G01X16983629Y2015877D01*
G01X16966611Y2015877D01*
G01X16955181Y2010289D01*
G01X16943751Y1998859D01*
G01X16937909Y1981587D01*
G01X16937909Y1970157D01*
G01X16943751Y1953139D01*
G01X16955181Y1941709D01*
G01X16966611Y1935867D01*
G01X16983629Y1935867D01*
G01X16995059Y1941709D01*
G01X17006489Y1953139D01*
G01X20368215Y2056009D02*
G01X20368215Y1935867D01*
G01X20328083Y2056009D02*
G01X20408093Y2056009D01*
G01X20484547Y2015877D02*
G01X20473117Y2010289D01*
G01X20461687Y1998859D01*
G01X20455845Y1981587D01*
G01X20455845Y1970157D01*
G01X20461687Y1953139D01*
G01X20473117Y1941709D01*
G01X20484547Y1935867D01*
G01X20501565Y1935867D01*
G01X20512995Y1941709D01*
G01X20524425Y1953139D01*
G01X20530267Y1970157D01*
G01X20530267Y1981587D01*
G01X20524425Y1998859D01*
G01X20512995Y2010289D01*
G01X20501565Y2015877D01*
G01X20484547Y2015877D01*
G01X20578019Y2015877D02*
G01X20578019Y1895989D01*
G01X20578019Y1998859D02*
G01X20589449Y2010289D01*
G01X20600879Y2015877D01*
G01X20618151Y2015877D01*
G01X20629581Y2010289D01*
G01X20641011Y1998859D01*
G01X20646599Y1981587D01*
G01X20646599Y1970157D01*
G01X20641011Y1953139D01*
G01X20629581Y1941709D01*
G01X20618151Y1935867D01*
G01X20600879Y1935867D01*
G01X20589449Y1941709D01*
G01X20578019Y1953139D01*
G01X20822367Y2056009D02*
G01X20822367Y1935867D01*
G01X20822367Y1935867D02*
G01X20890947Y1935867D01*
G01X21007279Y2015877D02*
G01X21007279Y1935867D01*
G01X21007279Y1998859D02*
G01X20995849Y2010289D01*
G01X20984419Y2015877D01*
G01X20967401Y2015877D01*
G01X20955971Y2010289D01*
G01X20944541Y1998859D01*
G01X20938699Y1981587D01*
G01X20938699Y1970157D01*
G01X20944541Y1953139D01*
G01X20955971Y1941709D01*
G01X20967401Y1935867D01*
G01X20984419Y1935867D01*
G01X20995849Y1941709D01*
G01X21007279Y1953139D01*
G01X21060873Y2015877D02*
G01X21095163Y1935867D01*
G01X21129453Y2015877D02*
G01X21095163Y1935867D01*
G01X21083733Y1913007D01*
G01X21072303Y1901577D01*
G01X21060873Y1895989D01*
G01X21055031Y1895989D01*
G01X21177205Y1981587D02*
G01X21245785Y1981587D01*
G01X21245785Y1993017D01*
G01X21240197Y2004447D01*
G01X21234355Y2010289D01*
G01X21222925Y2015877D01*
G01X21205907Y2015877D01*
G01X21194477Y2010289D01*
G01X21183047Y1998859D01*
G01X21177205Y1981587D01*
G01X21177205Y1970157D01*
G01X21183047Y1953139D01*
G01X21194477Y1941709D01*
G01X21205907Y1935867D01*
G01X21222925Y1935867D01*
G01X21234355Y1941709D01*
G01X21245785Y1953139D01*
G01X21293537Y2015877D02*
G01X21293537Y1935867D01*
G01X21293537Y1981587D02*
G01X21299379Y1998859D01*
G01X21310809Y2010289D01*
G01X21322239Y2015877D01*
G01X21339257Y2015877D01*
G01X21387009Y1987429D02*
G01X21489879Y1987429D01*
G01X21537631Y2056009D02*
G01X21537631Y1935867D01*
G01X21537631Y2056009D02*
G01X21589193Y2056009D01*
G01X21606211Y2050167D01*
G01X21612053Y2044579D01*
G01X21617641Y2033149D01*
G01X21617641Y2021719D01*
G01X21612053Y2010289D01*
G01X21606211Y2004447D01*
G01X21589193Y1998859D01*
G01X21537631Y1998859D02*
G01X21589193Y1998859D01*
G01X21606211Y1993017D01*
G01X21612053Y1987429D01*
G01X21617641Y1975999D01*
G01X21617641Y1958727D01*
G01X21612053Y1947297D01*
G01X21606211Y1941709D01*
G01X21589193Y1935867D01*
G01X21537631Y1935867D01*
G01X21694095Y2015877D02*
G01X21682665Y2010289D01*
G01X21671235Y1998859D01*
G01X21665393Y1981587D01*
G01X21665393Y1970157D01*
G01X21671235Y1953139D01*
G01X21682665Y1941709D01*
G01X21694095Y1935867D01*
G01X21711113Y1935867D01*
G01X21722543Y1941709D01*
G01X21733973Y1953139D01*
G01X21739815Y1970157D01*
G01X21739815Y1981587D01*
G01X21733973Y1998859D01*
G01X21722543Y2010289D01*
G01X21711113Y2015877D01*
G01X21694095Y2015877D01*
G01X21804839Y2056009D02*
G01X21804839Y1958727D01*
G01X21810427Y1941709D01*
G01X21821857Y1935867D01*
G01X21833287Y1935867D01*
G01X21787567Y2015877D02*
G01X21827699Y2015877D01*
G01X21898311Y2056009D02*
G01X21898311Y1958727D01*
G01X21903899Y1941709D01*
G01X21915329Y1935867D01*
G01X21926759Y1935867D01*
G01X21881039Y2015877D02*
G01X21921171Y2015877D01*
G01X22003213Y2015877D02*
G01X21991783Y2010289D01*
G01X21980353Y1998859D01*
G01X21974511Y1981587D01*
G01X21974511Y1970157D01*
G01X21980353Y1953139D01*
G01X21991783Y1941709D01*
G01X22003213Y1935867D01*
G01X22020231Y1935867D01*
G01X22031661Y1941709D01*
G01X22043091Y1953139D01*
G01X22048933Y1970157D01*
G01X22048933Y1981587D01*
G01X22043091Y1998859D01*
G01X22031661Y2010289D01*
G01X22020231Y2015877D01*
G01X22003213Y2015877D01*
G01X22096685Y2015877D02*
G01X22096685Y1935867D01*
G01X22096685Y1993017D02*
G01X22113957Y2010289D01*
G01X22125387Y2015877D01*
G01X22142405Y2015877D01*
G01X22153835Y2010289D01*
G01X22159677Y1993017D01*
G01X22159677Y1935867D01*
G01X22159677Y1993017D02*
G01X22176695Y2010289D01*
G01X22188125Y2015877D01*
G01X22205397Y2015877D01*
G01X22216827Y2010289D01*
G01X22222415Y1993017D01*
G01X22222415Y1935867D01*
G01X22398183Y2056009D02*
G01X22398183Y1935867D01*
G01X22398183Y1935867D02*
G01X22466763Y1935867D01*
G01X22583095Y2015877D02*
G01X22583095Y1935867D01*
G01X22583095Y1998859D02*
G01X22571665Y2010289D01*
G01X22560235Y2015877D01*
G01X22543217Y2015877D01*
G01X22531787Y2010289D01*
G01X22520357Y1998859D01*
G01X22514515Y1981587D01*
G01X22514515Y1970157D01*
G01X22520357Y1953139D01*
G01X22531787Y1941709D01*
G01X22543217Y1935867D01*
G01X22560235Y1935867D01*
G01X22571665Y1941709D01*
G01X22583095Y1953139D01*
G01X22636689Y2015877D02*
G01X22670979Y1935867D01*
G01X22705269Y2015877D02*
G01X22670979Y1935867D01*
G01X22659549Y1913007D01*
G01X22648119Y1901577D01*
G01X22636689Y1895989D01*
G01X22630847Y1895989D01*
G01X22753021Y1981587D02*
G01X22821601Y1981587D01*
G01X22821601Y1993017D01*
G01X22816013Y2004447D01*
G01X22810171Y2010289D01*
G01X22798741Y2015877D01*
G01X22781723Y2015877D01*
G01X22770293Y2010289D01*
G01X22758863Y1998859D01*
G01X22753021Y1981587D01*
G01X22753021Y1970157D01*
G01X22758863Y1953139D01*
G01X22770293Y1941709D01*
G01X22781723Y1935867D01*
G01X22798741Y1935867D01*
G01X22810171Y1941709D01*
G01X22821601Y1953139D01*
G01X22869353Y2015877D02*
G01X22869353Y1935867D01*
G01X22869353Y1981587D02*
G01X22875195Y1998859D01*
G01X22886625Y2010289D01*
G01X22898055Y2015877D01*
G01X22915073Y2015877D01*
G01X8357716Y1446735D02*
G01X8357716Y1452577D01*
G01X8363304Y1464007D01*
G01X8369146Y1469595D01*
G01X8380576Y1475437D01*
G01X8403436Y1475437D01*
G01X8414866Y1469595D01*
G01X8420454Y1464007D01*
G01X8426296Y1452577D01*
G01X8426296Y1441147D01*
G01X8420454Y1429717D01*
G01X8409024Y1412445D01*
G01X8351874Y1355295D01*
G01X8431884Y1355295D01*
G01X9766037Y1452577D02*
G01X9777467Y1458165D01*
G01X9794739Y1475437D01*
G01X9794739Y1355295D01*
G01X9842491Y1452577D02*
G01X9853921Y1458165D01*
G01X9871193Y1475437D01*
G01X9871193Y1355295D01*
G01X9947647Y1475437D02*
G01X9930375Y1469595D01*
G01X9924787Y1458165D01*
G01X9924787Y1446735D01*
G01X9930375Y1435305D01*
G01X9941805Y1429717D01*
G01X9964665Y1423875D01*
G01X9981937Y1418287D01*
G01X9993367Y1406857D01*
G01X9998955Y1395427D01*
G01X9998955Y1378155D01*
G01X9993367Y1366725D01*
G01X9987525Y1361137D01*
G01X9970507Y1355295D01*
G01X9947647Y1355295D01*
G01X9930375Y1361137D01*
G01X9924787Y1366725D01*
G01X9918945Y1378155D01*
G01X9918945Y1395427D01*
G01X9924787Y1406857D01*
G01X9936217Y1418287D01*
G01X9953235Y1423875D01*
G01X9976095Y1429717D01*
G01X9987525Y1435305D01*
G01X9993367Y1446735D01*
G01X9993367Y1458165D01*
G01X9987525Y1469595D01*
G01X9970507Y1475437D01*
G01X9947647Y1475437D01*
G01X10052549Y1383997D02*
G01X10046707Y1378155D01*
G01X10052549Y1372567D01*
G01X10058137Y1378155D01*
G01X10052549Y1383997D01*
G01X10105889Y1452577D02*
G01X10117319Y1458165D01*
G01X10134591Y1475437D01*
G01X10134591Y1355295D01*
G01X10182343Y1435305D02*
G01X10182343Y1355295D01*
G01X10182343Y1412445D02*
G01X10199615Y1429717D01*
G01X10211045Y1435305D01*
G01X10228063Y1435305D01*
G01X10239493Y1429717D01*
G01X10245335Y1412445D01*
G01X10245335Y1355295D01*
G01X10245335Y1412445D02*
G01X10262353Y1429717D01*
G01X10273783Y1435305D01*
G01X10291055Y1435305D01*
G01X10302485Y1429717D01*
G01X10308073Y1412445D01*
G01X10308073Y1355295D01*
G01X10355825Y1475437D02*
G01X10361667Y1469595D01*
G01X10367255Y1475437D01*
G01X10361667Y1481025D01*
G01X10355825Y1475437D01*
G01X10361667Y1435305D02*
G01X10361667Y1355295D01*
G01X10415007Y1475437D02*
G01X10415007Y1355295D01*
G01X10502891Y1498297D02*
G01X10491461Y1486867D01*
G01X10480031Y1469595D01*
G01X10468601Y1446735D01*
G01X10462759Y1418287D01*
G01X10462759Y1395427D01*
G01X10468601Y1366725D01*
G01X10480031Y1343865D01*
G01X10491461Y1326847D01*
G01X10502891Y1315417D01*
G01X10562073Y1475437D02*
G01X10625065Y1475437D01*
G01X10590775Y1429717D01*
G01X10607793Y1429717D01*
G01X10619223Y1423875D01*
G01X10625065Y1418287D01*
G01X10630653Y1401015D01*
G01X10630653Y1389585D01*
G01X10625065Y1372567D01*
G01X10613635Y1361137D01*
G01X10596363Y1355295D01*
G01X10579345Y1355295D01*
G01X10562073Y1361137D01*
G01X10556485Y1366725D01*
G01X10550643Y1378155D01*
G01X10684247Y1383997D02*
G01X10678405Y1378155D01*
G01X10684247Y1372567D01*
G01X10689835Y1378155D01*
G01X10684247Y1383997D01*
G01X10771877Y1475437D02*
G01X10754859Y1469595D01*
G01X10743429Y1452577D01*
G01X10737587Y1423875D01*
G01X10737587Y1406857D01*
G01X10743429Y1378155D01*
G01X10754859Y1361137D01*
G01X10771877Y1355295D01*
G01X10783307Y1355295D01*
G01X10800579Y1361137D01*
G01X10812009Y1378155D01*
G01X10817597Y1406857D01*
G01X10817597Y1423875D01*
G01X10812009Y1452577D01*
G01X10800579Y1469595D01*
G01X10783307Y1475437D01*
G01X10771877Y1475437D01*
G01X10899639Y1475437D02*
G01X10882621Y1469595D01*
G01X10871191Y1452577D01*
G01X10865349Y1423875D01*
G01X10865349Y1406857D01*
G01X10871191Y1378155D01*
G01X10882621Y1361137D01*
G01X10899639Y1355295D01*
G01X10911069Y1355295D01*
G01X10928341Y1361137D01*
G01X10939771Y1378155D01*
G01X10945359Y1406857D01*
G01X10945359Y1423875D01*
G01X10939771Y1452577D01*
G01X10928341Y1469595D01*
G01X10911069Y1475437D01*
G01X10899639Y1475437D01*
G01X11027401Y1475437D02*
G01X11010383Y1469595D01*
G01X10998953Y1452577D01*
G01X10993111Y1423875D01*
G01X10993111Y1406857D01*
G01X10998953Y1378155D01*
G01X11010383Y1361137D01*
G01X11027401Y1355295D01*
G01X11038831Y1355295D01*
G01X11056103Y1361137D01*
G01X11067533Y1378155D01*
G01X11073121Y1406857D01*
G01X11073121Y1423875D01*
G01X11067533Y1452577D01*
G01X11056103Y1469595D01*
G01X11038831Y1475437D01*
G01X11027401Y1475437D01*
G01X11120873Y1435305D02*
G01X11120873Y1355295D01*
G01X11120873Y1412445D02*
G01X11138145Y1429717D01*
G01X11149575Y1435305D01*
G01X11166593Y1435305D01*
G01X11178023Y1429717D01*
G01X11183865Y1412445D01*
G01X11183865Y1355295D01*
G01X11183865Y1412445D02*
G01X11200883Y1429717D01*
G01X11212313Y1435305D01*
G01X11229585Y1435305D01*
G01X11241015Y1429717D01*
G01X11246603Y1412445D01*
G01X11246603Y1355295D01*
G01X11294355Y1435305D02*
G01X11294355Y1355295D01*
G01X11294355Y1412445D02*
G01X11311627Y1429717D01*
G01X11323057Y1435305D01*
G01X11340075Y1435305D01*
G01X11351505Y1429717D01*
G01X11357347Y1412445D01*
G01X11357347Y1355295D01*
G01X11357347Y1412445D02*
G01X11374365Y1429717D01*
G01X11385795Y1435305D01*
G01X11403067Y1435305D01*
G01X11414497Y1429717D01*
G01X11420085Y1412445D01*
G01X11420085Y1355295D01*
G01X11467837Y1498297D02*
G01X11479267Y1486867D01*
G01X11490697Y1469595D01*
G01X11502127Y1446735D01*
G01X11507969Y1418287D01*
G01X11507969Y1395427D01*
G01X11502127Y1366725D01*
G01X11490697Y1343865D01*
G01X11479267Y1326847D01*
G01X11467837Y1315417D01*
G01X13846947Y1475437D02*
G01X13846947Y1355295D01*
G01X13846947Y1475437D02*
G01X13926957Y1355295D01*
G01X13926957Y1475437D02*
G01X13926957Y1355295D01*
G01X13974709Y1475437D02*
G01X13974709Y1355295D01*
G01X13974709Y1475437D02*
G01X14026271Y1475437D01*
G01X14043289Y1469595D01*
G01X14049131Y1464007D01*
G01X14054719Y1452577D01*
G01X14054719Y1435305D01*
G01X14049131Y1423875D01*
G01X14043289Y1418287D01*
G01X14026271Y1412445D01*
G01X13974709Y1412445D01*
G01X14142603Y1475437D02*
G01X14142603Y1355295D01*
G01X14102471Y1475437D02*
G01X14182481Y1475437D01*
G01X14230233Y1475437D02*
G01X14230233Y1355295D01*
G01X14310243Y1475437D02*
G01X14310243Y1355295D01*
G01X14230233Y1418287D02*
G01X14310243Y1418287D01*
G01X15308354Y1475437D02*
G01X15308354Y1355295D01*
G01X15308354Y1475437D02*
G01X15359916Y1475437D01*
G01X15376934Y1469595D01*
G01X15382776Y1464007D01*
G01X15388364Y1452577D01*
G01X15388364Y1441147D01*
G01X15382776Y1429717D01*
G01X15376934Y1423875D01*
G01X15359916Y1418287D01*
G01X15308354Y1418287D01*
G01X15348486Y1418287D02*
G01X15388364Y1355295D01*
G01X15464818Y1435305D02*
G01X15453388Y1429717D01*
G01X15441958Y1418287D01*
G01X15436116Y1401015D01*
G01X15436116Y1389585D01*
G01X15441958Y1372567D01*
G01X15453388Y1361137D01*
G01X15464818Y1355295D01*
G01X15481836Y1355295D01*
G01X15493266Y1361137D01*
G01X15504696Y1372567D01*
G01X15510538Y1389585D01*
G01X15510538Y1401015D01*
G01X15504696Y1418287D01*
G01X15493266Y1429717D01*
G01X15481836Y1435305D01*
G01X15464818Y1435305D01*
G01X15558290Y1435305D02*
G01X15558290Y1378155D01*
G01X15564132Y1361137D01*
G01X15575562Y1355295D01*
G01X15592580Y1355295D01*
G01X15604010Y1361137D01*
G01X15621282Y1378155D01*
G01X15621282Y1435305D02*
G01X15621282Y1355295D01*
G01X15669034Y1435305D02*
G01X15669034Y1355295D01*
G01X15669034Y1412445D02*
G01X15686306Y1429717D01*
G01X15697736Y1435305D01*
G01X15714754Y1435305D01*
G01X15726184Y1429717D01*
G01X15732026Y1412445D01*
G01X15732026Y1355295D01*
G01X15848358Y1475437D02*
G01X15848358Y1355295D01*
G01X15848358Y1418287D02*
G01X15836928Y1429717D01*
G01X15825498Y1435305D01*
G01X15808480Y1435305D01*
G01X15797050Y1429717D01*
G01X15785620Y1418287D01*
G01X15779778Y1401015D01*
G01X15779778Y1389585D01*
G01X15785620Y1372567D01*
G01X15797050Y1361137D01*
G01X15808480Y1355295D01*
G01X15825498Y1355295D01*
G01X15836928Y1361137D01*
G01X15848358Y1372567D01*
G01X16739535Y1475437D02*
G01X16785255Y1355295D01*
G01X16830975Y1475437D02*
G01X16785255Y1355295D01*
G01X16878727Y1475437D02*
G01X16884569Y1469595D01*
G01X16890157Y1475437D01*
G01X16884569Y1481025D01*
G01X16878727Y1475437D01*
G01X16884569Y1435305D02*
G01X16884569Y1355295D01*
G01X17006489Y1435305D02*
G01X17006489Y1355295D01*
G01X17006489Y1418287D02*
G01X16995059Y1429717D01*
G01X16983629Y1435305D01*
G01X16966611Y1435305D01*
G01X16955181Y1429717D01*
G01X16943751Y1418287D01*
G01X16937909Y1401015D01*
G01X16937909Y1389585D01*
G01X16943751Y1372567D01*
G01X16955181Y1361137D01*
G01X16966611Y1355295D01*
G01X16983629Y1355295D01*
G01X16995059Y1361137D01*
G01X17006489Y1372567D01*
G01X20368215Y1475437D02*
G01X20368215Y1355295D01*
G01X20328083Y1475437D02*
G01X20408093Y1475437D01*
G01X20484547Y1435305D02*
G01X20473117Y1429717D01*
G01X20461687Y1418287D01*
G01X20455845Y1401015D01*
G01X20455845Y1389585D01*
G01X20461687Y1372567D01*
G01X20473117Y1361137D01*
G01X20484547Y1355295D01*
G01X20501565Y1355295D01*
G01X20512995Y1361137D01*
G01X20524425Y1372567D01*
G01X20530267Y1389585D01*
G01X20530267Y1401015D01*
G01X20524425Y1418287D01*
G01X20512995Y1429717D01*
G01X20501565Y1435305D01*
G01X20484547Y1435305D01*
G01X20578019Y1435305D02*
G01X20578019Y1315417D01*
G01X20578019Y1418287D02*
G01X20589449Y1429717D01*
G01X20600879Y1435305D01*
G01X20618151Y1435305D01*
G01X20629581Y1429717D01*
G01X20641011Y1418287D01*
G01X20646599Y1401015D01*
G01X20646599Y1389585D01*
G01X20641011Y1372567D01*
G01X20629581Y1361137D01*
G01X20618151Y1355295D01*
G01X20600879Y1355295D01*
G01X20589449Y1361137D01*
G01X20578019Y1372567D01*
G01X20822367Y1475437D02*
G01X20822367Y1355295D01*
G01X20822367Y1355295D02*
G01X20890947Y1355295D01*
G01X21007279Y1435305D02*
G01X21007279Y1355295D01*
G01X21007279Y1418287D02*
G01X20995849Y1429717D01*
G01X20984419Y1435305D01*
G01X20967401Y1435305D01*
G01X20955971Y1429717D01*
G01X20944541Y1418287D01*
G01X20938699Y1401015D01*
G01X20938699Y1389585D01*
G01X20944541Y1372567D01*
G01X20955971Y1361137D01*
G01X20967401Y1355295D01*
G01X20984419Y1355295D01*
G01X20995849Y1361137D01*
G01X21007279Y1372567D01*
G01X21060873Y1435305D02*
G01X21095163Y1355295D01*
G01X21129453Y1435305D02*
G01X21095163Y1355295D01*
G01X21083733Y1332435D01*
G01X21072303Y1321005D01*
G01X21060873Y1315417D01*
G01X21055031Y1315417D01*
G01X21177205Y1401015D02*
G01X21245785Y1401015D01*
G01X21245785Y1412445D01*
G01X21240197Y1423875D01*
G01X21234355Y1429717D01*
G01X21222925Y1435305D01*
G01X21205907Y1435305D01*
G01X21194477Y1429717D01*
G01X21183047Y1418287D01*
G01X21177205Y1401015D01*
G01X21177205Y1389585D01*
G01X21183047Y1372567D01*
G01X21194477Y1361137D01*
G01X21205907Y1355295D01*
G01X21222925Y1355295D01*
G01X21234355Y1361137D01*
G01X21245785Y1372567D01*
G01X21293537Y1435305D02*
G01X21293537Y1355295D01*
G01X21293537Y1401015D02*
G01X21299379Y1418287D01*
G01X21310809Y1429717D01*
G01X21322239Y1435305D01*
G01X21339257Y1435305D01*
G01X21387009Y1406857D02*
G01X21489879Y1406857D01*
G01X21537631Y1475437D02*
G01X21537631Y1355295D01*
G01X21537631Y1475437D02*
G01X21589193Y1475437D01*
G01X21606211Y1469595D01*
G01X21612053Y1464007D01*
G01X21617641Y1452577D01*
G01X21617641Y1441147D01*
G01X21612053Y1429717D01*
G01X21606211Y1423875D01*
G01X21589193Y1418287D01*
G01X21537631Y1418287D02*
G01X21589193Y1418287D01*
G01X21606211Y1412445D01*
G01X21612053Y1406857D01*
G01X21617641Y1395427D01*
G01X21617641Y1378155D01*
G01X21612053Y1366725D01*
G01X21606211Y1361137D01*
G01X21589193Y1355295D01*
G01X21537631Y1355295D01*
G01X21694095Y1435305D02*
G01X21682665Y1429717D01*
G01X21671235Y1418287D01*
G01X21665393Y1401015D01*
G01X21665393Y1389585D01*
G01X21671235Y1372567D01*
G01X21682665Y1361137D01*
G01X21694095Y1355295D01*
G01X21711113Y1355295D01*
G01X21722543Y1361137D01*
G01X21733973Y1372567D01*
G01X21739815Y1389585D01*
G01X21739815Y1401015D01*
G01X21733973Y1418287D01*
G01X21722543Y1429717D01*
G01X21711113Y1435305D01*
G01X21694095Y1435305D01*
G01X21804839Y1475437D02*
G01X21804839Y1378155D01*
G01X21810427Y1361137D01*
G01X21821857Y1355295D01*
G01X21833287Y1355295D01*
G01X21787567Y1435305D02*
G01X21827699Y1435305D01*
G01X21898311Y1475437D02*
G01X21898311Y1378155D01*
G01X21903899Y1361137D01*
G01X21915329Y1355295D01*
G01X21926759Y1355295D01*
G01X21881039Y1435305D02*
G01X21921171Y1435305D01*
G01X22003213Y1435305D02*
G01X21991783Y1429717D01*
G01X21980353Y1418287D01*
G01X21974511Y1401015D01*
G01X21974511Y1389585D01*
G01X21980353Y1372567D01*
G01X21991783Y1361137D01*
G01X22003213Y1355295D01*
G01X22020231Y1355295D01*
G01X22031661Y1361137D01*
G01X22043091Y1372567D01*
G01X22048933Y1389585D01*
G01X22048933Y1401015D01*
G01X22043091Y1418287D01*
G01X22031661Y1429717D01*
G01X22020231Y1435305D01*
G01X22003213Y1435305D01*
G01X22096685Y1435305D02*
G01X22096685Y1355295D01*
G01X22096685Y1412445D02*
G01X22113957Y1429717D01*
G01X22125387Y1435305D01*
G01X22142405Y1435305D01*
G01X22153835Y1429717D01*
G01X22159677Y1412445D01*
G01X22159677Y1355295D01*
G01X22159677Y1412445D02*
G01X22176695Y1429717D01*
G01X22188125Y1435305D01*
G01X22205397Y1435305D01*
G01X22216827Y1429717D01*
G01X22222415Y1412445D01*
G01X22222415Y1355295D01*
G01X22398183Y1475437D02*
G01X22398183Y1355295D01*
G01X22398183Y1355295D02*
G01X22466763Y1355295D01*
G01X22583095Y1435305D02*
G01X22583095Y1355295D01*
G01X22583095Y1418287D02*
G01X22571665Y1429717D01*
G01X22560235Y1435305D01*
G01X22543217Y1435305D01*
G01X22531787Y1429717D01*
G01X22520357Y1418287D01*
G01X22514515Y1401015D01*
G01X22514515Y1389585D01*
G01X22520357Y1372567D01*
G01X22531787Y1361137D01*
G01X22543217Y1355295D01*
G01X22560235Y1355295D01*
G01X22571665Y1361137D01*
G01X22583095Y1372567D01*
G01X22636689Y1435305D02*
G01X22670979Y1355295D01*
G01X22705269Y1435305D02*
G01X22670979Y1355295D01*
G01X22659549Y1332435D01*
G01X22648119Y1321005D01*
G01X22636689Y1315417D01*
G01X22630847Y1315417D01*
G01X22753021Y1401015D02*
G01X22821601Y1401015D01*
G01X22821601Y1412445D01*
G01X22816013Y1423875D01*
G01X22810171Y1429717D01*
G01X22798741Y1435305D01*
G01X22781723Y1435305D01*
G01X22770293Y1429717D01*
G01X22758863Y1418287D01*
G01X22753021Y1401015D01*
G01X22753021Y1389585D01*
G01X22758863Y1372567D01*
G01X22770293Y1361137D01*
G01X22781723Y1355295D01*
G01X22798741Y1355295D01*
G01X22810171Y1361137D01*
G01X22821601Y1372567D01*
G01X22869353Y1435305D02*
G01X22869353Y1355295D01*
G01X22869353Y1401015D02*
G01X22875195Y1418287D01*
G01X22886625Y1429717D01*
G01X22898055Y1435305D01*
G01X22915073Y1435305D01*
G01X8351874Y872006D02*
G01X8363304Y877594D01*
G01X8380576Y894866D01*
G01X8380576Y774724D01*
G01X8428328Y872006D02*
G01X8439758Y877594D01*
G01X8457030Y894866D01*
G01X8457030Y774724D01*
G01X8573362Y894866D02*
G01X8516212Y894866D01*
G01X8510624Y843304D01*
G01X8516212Y849146D01*
G01X8533484Y854734D01*
G01X8550502Y854734D01*
G01X8567774Y849146D01*
G01X8579204Y837716D01*
G01X8584792Y820444D01*
G01X8584792Y809014D01*
G01X8579204Y791996D01*
G01X8567774Y780566D01*
G01X8550502Y774724D01*
G01X8533484Y774724D01*
G01X8516212Y780566D01*
G01X8510624Y786154D01*
G01X8504782Y797584D01*
G01X9766037Y872006D02*
G01X9777467Y877594D01*
G01X9794739Y894866D01*
G01X9794739Y774724D01*
G01X9848333Y866164D02*
G01X9848333Y872006D01*
G01X9853921Y883436D01*
G01X9859763Y889024D01*
G01X9871193Y894866D01*
G01X9894053Y894866D01*
G01X9905483Y889024D01*
G01X9911071Y883436D01*
G01X9916913Y872006D01*
G01X9916913Y860576D01*
G01X9911071Y849146D01*
G01X9899641Y831874D01*
G01X9842491Y774724D01*
G01X9922501Y774724D01*
G01X9976095Y803426D02*
G01X9970253Y797584D01*
G01X9976095Y791996D01*
G01X9981683Y797584D01*
G01X9976095Y803426D01*
G01X10063725Y894866D02*
G01X10046707Y889024D01*
G01X10035277Y872006D01*
G01X10029435Y843304D01*
G01X10029435Y826286D01*
G01X10035277Y797584D01*
G01X10046707Y780566D01*
G01X10063725Y774724D01*
G01X10075155Y774724D01*
G01X10092427Y780566D01*
G01X10103857Y797584D01*
G01X10109445Y826286D01*
G01X10109445Y843304D01*
G01X10103857Y872006D01*
G01X10092427Y889024D01*
G01X10075155Y894866D01*
G01X10063725Y894866D01*
G01X10157197Y854734D02*
G01X10157197Y774724D01*
G01X10157197Y831874D02*
G01X10174469Y849146D01*
G01X10185899Y854734D01*
G01X10202917Y854734D01*
G01X10214347Y849146D01*
G01X10220189Y831874D01*
G01X10220189Y774724D01*
G01X10220189Y831874D02*
G01X10237207Y849146D01*
G01X10248637Y854734D01*
G01X10265909Y854734D01*
G01X10277339Y849146D01*
G01X10282927Y831874D01*
G01X10282927Y774724D01*
G01X10330679Y894866D02*
G01X10336521Y889024D01*
G01X10342109Y894866D01*
G01X10336521Y900454D01*
G01X10330679Y894866D01*
G01X10336521Y854734D02*
G01X10336521Y774724D01*
G01X10389861Y894866D02*
G01X10389861Y774724D01*
G01X10477745Y917726D02*
G01X10466315Y906296D01*
G01X10454885Y889024D01*
G01X10443455Y866164D01*
G01X10437613Y837716D01*
G01X10437613Y814856D01*
G01X10443455Y786154D01*
G01X10454885Y763294D01*
G01X10466315Y746276D01*
G01X10477745Y734846D01*
G01X10559787Y894866D02*
G01X10542769Y889024D01*
G01X10531339Y872006D01*
G01X10525497Y843304D01*
G01X10525497Y826286D01*
G01X10531339Y797584D01*
G01X10542769Y780566D01*
G01X10559787Y774724D01*
G01X10571217Y774724D01*
G01X10588489Y780566D01*
G01X10599919Y797584D01*
G01X10605507Y826286D01*
G01X10605507Y843304D01*
G01X10599919Y872006D01*
G01X10588489Y889024D01*
G01X10571217Y894866D01*
G01X10559787Y894866D01*
G01X10659101Y803426D02*
G01X10653259Y797584D01*
G01X10659101Y791996D01*
G01X10664689Y797584D01*
G01X10659101Y803426D01*
G01X10723871Y894866D02*
G01X10786863Y894866D01*
G01X10752573Y849146D01*
G01X10769591Y849146D01*
G01X10781021Y843304D01*
G01X10786863Y837716D01*
G01X10792451Y820444D01*
G01X10792451Y809014D01*
G01X10786863Y791996D01*
G01X10775433Y780566D01*
G01X10758161Y774724D01*
G01X10741143Y774724D01*
G01X10723871Y780566D01*
G01X10718283Y786154D01*
G01X10712441Y797584D01*
G01X10874493Y894866D02*
G01X10857475Y889024D01*
G01X10846045Y872006D01*
G01X10840203Y843304D01*
G01X10840203Y826286D01*
G01X10846045Y797584D01*
G01X10857475Y780566D01*
G01X10874493Y774724D01*
G01X10885923Y774724D01*
G01X10903195Y780566D01*
G01X10914625Y797584D01*
G01X10920213Y826286D01*
G01X10920213Y843304D01*
G01X10914625Y872006D01*
G01X10903195Y889024D01*
G01X10885923Y894866D01*
G01X10874493Y894866D01*
G01X11036545Y894866D02*
G01X10979395Y894866D01*
G01X10973807Y843304D01*
G01X10979395Y849146D01*
G01X10996667Y854734D01*
G01X11013685Y854734D01*
G01X11030957Y849146D01*
G01X11042387Y837716D01*
G01X11047975Y820444D01*
G01X11047975Y809014D01*
G01X11042387Y791996D01*
G01X11030957Y780566D01*
G01X11013685Y774724D01*
G01X10996667Y774724D01*
G01X10979395Y780566D01*
G01X10973807Y786154D01*
G01X10967965Y797584D01*
G01X11095727Y854734D02*
G01X11095727Y774724D01*
G01X11095727Y831874D02*
G01X11112999Y849146D01*
G01X11124429Y854734D01*
G01X11141447Y854734D01*
G01X11152877Y849146D01*
G01X11158719Y831874D01*
G01X11158719Y774724D01*
G01X11158719Y831874D02*
G01X11175737Y849146D01*
G01X11187167Y854734D01*
G01X11204439Y854734D01*
G01X11215869Y849146D01*
G01X11221457Y831874D01*
G01X11221457Y774724D01*
G01X11269209Y854734D02*
G01X11269209Y774724D01*
G01X11269209Y831874D02*
G01X11286481Y849146D01*
G01X11297911Y854734D01*
G01X11314929Y854734D01*
G01X11326359Y849146D01*
G01X11332201Y831874D01*
G01X11332201Y774724D01*
G01X11332201Y831874D02*
G01X11349219Y849146D01*
G01X11360649Y854734D01*
G01X11377921Y854734D01*
G01X11389351Y849146D01*
G01X11394939Y831874D01*
G01X11394939Y774724D01*
G01X11442691Y917726D02*
G01X11454121Y906296D01*
G01X11465551Y889024D01*
G01X11476981Y866164D01*
G01X11482823Y837716D01*
G01X11482823Y814856D01*
G01X11476981Y786154D01*
G01X11465551Y763294D01*
G01X11454121Y746276D01*
G01X11442691Y734846D01*
G01X13846947Y894866D02*
G01X13846947Y774724D01*
G01X13846947Y894866D02*
G01X13898509Y894866D01*
G01X13915527Y889024D01*
G01X13921369Y883436D01*
G01X13926957Y872006D01*
G01X13926957Y854734D01*
G01X13921369Y843304D01*
G01X13915527Y837716D01*
G01X13898509Y831874D01*
G01X13846947Y831874D01*
G01X14014841Y894866D02*
G01X14014841Y774724D01*
G01X13974709Y894866D02*
G01X14054719Y894866D01*
G01X14102471Y894866D02*
G01X14102471Y774724D01*
G01X14182481Y894866D02*
G01X14182481Y774724D01*
G01X14102471Y837716D02*
G01X14182481Y837716D01*
G01X15308354Y894866D02*
G01X15308354Y774724D01*
G01X15308354Y894866D02*
G01X15359916Y894866D01*
G01X15376934Y889024D01*
G01X15382776Y883436D01*
G01X15388364Y872006D01*
G01X15388364Y860576D01*
G01X15382776Y849146D01*
G01X15376934Y843304D01*
G01X15359916Y837716D01*
G01X15308354Y837716D01*
G01X15348486Y837716D02*
G01X15388364Y774724D01*
G01X15464818Y854734D02*
G01X15453388Y849146D01*
G01X15441958Y837716D01*
G01X15436116Y820444D01*
G01X15436116Y809014D01*
G01X15441958Y791996D01*
G01X15453388Y780566D01*
G01X15464818Y774724D01*
G01X15481836Y774724D01*
G01X15493266Y780566D01*
G01X15504696Y791996D01*
G01X15510538Y809014D01*
G01X15510538Y820444D01*
G01X15504696Y837716D01*
G01X15493266Y849146D01*
G01X15481836Y854734D01*
G01X15464818Y854734D01*
G01X15558290Y854734D02*
G01X15558290Y797584D01*
G01X15564132Y780566D01*
G01X15575562Y774724D01*
G01X15592580Y774724D01*
G01X15604010Y780566D01*
G01X15621282Y797584D01*
G01X15621282Y854734D02*
G01X15621282Y774724D01*
G01X15669034Y854734D02*
G01X15669034Y774724D01*
G01X15669034Y831874D02*
G01X15686306Y849146D01*
G01X15697736Y854734D01*
G01X15714754Y854734D01*
G01X15726184Y849146D01*
G01X15732026Y831874D01*
G01X15732026Y774724D01*
G01X15848358Y894866D02*
G01X15848358Y774724D01*
G01X15848358Y837716D02*
G01X15836928Y849146D01*
G01X15825498Y854734D01*
G01X15808480Y854734D01*
G01X15797050Y849146D01*
G01X15785620Y837716D01*
G01X15779778Y820444D01*
G01X15779778Y809014D01*
G01X15785620Y791996D01*
G01X15797050Y780566D01*
G01X15808480Y774724D01*
G01X15825498Y774724D01*
G01X15836928Y780566D01*
G01X15848358Y791996D01*
G01X16739535Y894866D02*
G01X16785255Y774724D01*
G01X16830975Y894866D02*
G01X16785255Y774724D01*
G01X16878727Y894866D02*
G01X16884569Y889024D01*
G01X16890157Y894866D01*
G01X16884569Y900454D01*
G01X16878727Y894866D01*
G01X16884569Y854734D02*
G01X16884569Y774724D01*
G01X17006489Y854734D02*
G01X17006489Y774724D01*
G01X17006489Y837716D02*
G01X16995059Y849146D01*
G01X16983629Y854734D01*
G01X16966611Y854734D01*
G01X16955181Y849146D01*
G01X16943751Y837716D01*
G01X16937909Y820444D01*
G01X16937909Y809014D01*
G01X16943751Y791996D01*
G01X16955181Y780566D01*
G01X16966611Y774724D01*
G01X16983629Y774724D01*
G01X16995059Y780566D01*
G01X17006489Y791996D01*
G01X20368215Y894866D02*
G01X20368215Y774724D01*
G01X20328083Y894866D02*
G01X20408093Y894866D01*
G01X20484547Y854734D02*
G01X20473117Y849146D01*
G01X20461687Y837716D01*
G01X20455845Y820444D01*
G01X20455845Y809014D01*
G01X20461687Y791996D01*
G01X20473117Y780566D01*
G01X20484547Y774724D01*
G01X20501565Y774724D01*
G01X20512995Y780566D01*
G01X20524425Y791996D01*
G01X20530267Y809014D01*
G01X20530267Y820444D01*
G01X20524425Y837716D01*
G01X20512995Y849146D01*
G01X20501565Y854734D01*
G01X20484547Y854734D01*
G01X20578019Y854734D02*
G01X20578019Y734846D01*
G01X20578019Y837716D02*
G01X20589449Y849146D01*
G01X20600879Y854734D01*
G01X20618151Y854734D01*
G01X20629581Y849146D01*
G01X20641011Y837716D01*
G01X20646599Y820444D01*
G01X20646599Y809014D01*
G01X20641011Y791996D01*
G01X20629581Y780566D01*
G01X20618151Y774724D01*
G01X20600879Y774724D01*
G01X20589449Y780566D01*
G01X20578019Y791996D01*
G01X20822367Y894866D02*
G01X20822367Y774724D01*
G01X20822367Y774724D02*
G01X20890947Y774724D01*
G01X21007279Y854734D02*
G01X21007279Y774724D01*
G01X21007279Y837716D02*
G01X20995849Y849146D01*
G01X20984419Y854734D01*
G01X20967401Y854734D01*
G01X20955971Y849146D01*
G01X20944541Y837716D01*
G01X20938699Y820444D01*
G01X20938699Y809014D01*
G01X20944541Y791996D01*
G01X20955971Y780566D01*
G01X20967401Y774724D01*
G01X20984419Y774724D01*
G01X20995849Y780566D01*
G01X21007279Y791996D01*
G01X21060873Y854734D02*
G01X21095163Y774724D01*
G01X21129453Y854734D02*
G01X21095163Y774724D01*
G01X21083733Y751864D01*
G01X21072303Y740434D01*
G01X21060873Y734846D01*
G01X21055031Y734846D01*
G01X21177205Y820444D02*
G01X21245785Y820444D01*
G01X21245785Y831874D01*
G01X21240197Y843304D01*
G01X21234355Y849146D01*
G01X21222925Y854734D01*
G01X21205907Y854734D01*
G01X21194477Y849146D01*
G01X21183047Y837716D01*
G01X21177205Y820444D01*
G01X21177205Y809014D01*
G01X21183047Y791996D01*
G01X21194477Y780566D01*
G01X21205907Y774724D01*
G01X21222925Y774724D01*
G01X21234355Y780566D01*
G01X21245785Y791996D01*
G01X21293537Y854734D02*
G01X21293537Y774724D01*
G01X21293537Y820444D02*
G01X21299379Y837716D01*
G01X21310809Y849146D01*
G01X21322239Y854734D01*
G01X21339257Y854734D01*
G01X21387009Y826286D02*
G01X21489879Y826286D01*
G01X21537631Y894866D02*
G01X21537631Y774724D01*
G01X21537631Y894866D02*
G01X21589193Y894866D01*
G01X21606211Y889024D01*
G01X21612053Y883436D01*
G01X21617641Y872006D01*
G01X21617641Y860576D01*
G01X21612053Y849146D01*
G01X21606211Y843304D01*
G01X21589193Y837716D01*
G01X21537631Y837716D02*
G01X21589193Y837716D01*
G01X21606211Y831874D01*
G01X21612053Y826286D01*
G01X21617641Y814856D01*
G01X21617641Y797584D01*
G01X21612053Y786154D01*
G01X21606211Y780566D01*
G01X21589193Y774724D01*
G01X21537631Y774724D01*
G01X21694095Y854734D02*
G01X21682665Y849146D01*
G01X21671235Y837716D01*
G01X21665393Y820444D01*
G01X21665393Y809014D01*
G01X21671235Y791996D01*
G01X21682665Y780566D01*
G01X21694095Y774724D01*
G01X21711113Y774724D01*
G01X21722543Y780566D01*
G01X21733973Y791996D01*
G01X21739815Y809014D01*
G01X21739815Y820444D01*
G01X21733973Y837716D01*
G01X21722543Y849146D01*
G01X21711113Y854734D01*
G01X21694095Y854734D01*
G01X21804839Y894866D02*
G01X21804839Y797584D01*
G01X21810427Y780566D01*
G01X21821857Y774724D01*
G01X21833287Y774724D01*
G01X21787567Y854734D02*
G01X21827699Y854734D01*
G01X21898311Y894866D02*
G01X21898311Y797584D01*
G01X21903899Y780566D01*
G01X21915329Y774724D01*
G01X21926759Y774724D01*
G01X21881039Y854734D02*
G01X21921171Y854734D01*
G01X22003213Y854734D02*
G01X21991783Y849146D01*
G01X21980353Y837716D01*
G01X21974511Y820444D01*
G01X21974511Y809014D01*
G01X21980353Y791996D01*
G01X21991783Y780566D01*
G01X22003213Y774724D01*
G01X22020231Y774724D01*
G01X22031661Y780566D01*
G01X22043091Y791996D01*
G01X22048933Y809014D01*
G01X22048933Y820444D01*
G01X22043091Y837716D01*
G01X22031661Y849146D01*
G01X22020231Y854734D01*
G01X22003213Y854734D01*
G01X22096685Y854734D02*
G01X22096685Y774724D01*
G01X22096685Y831874D02*
G01X22113957Y849146D01*
G01X22125387Y854734D01*
G01X22142405Y854734D01*
G01X22153835Y849146D01*
G01X22159677Y831874D01*
G01X22159677Y774724D01*
G01X22159677Y831874D02*
G01X22176695Y849146D01*
G01X22188125Y854734D01*
G01X22205397Y854734D01*
G01X22216827Y849146D01*
G01X22222415Y831874D01*
G01X22222415Y774724D01*
G01X22398183Y894866D02*
G01X22398183Y774724D01*
G01X22398183Y774724D02*
G01X22466763Y774724D01*
G01X22583095Y854734D02*
G01X22583095Y774724D01*
G01X22583095Y837716D02*
G01X22571665Y849146D01*
G01X22560235Y854734D01*
G01X22543217Y854734D01*
G01X22531787Y849146D01*
G01X22520357Y837716D01*
G01X22514515Y820444D01*
G01X22514515Y809014D01*
G01X22520357Y791996D01*
G01X22531787Y780566D01*
G01X22543217Y774724D01*
G01X22560235Y774724D01*
G01X22571665Y780566D01*
G01X22583095Y791996D01*
G01X22636689Y854734D02*
G01X22670979Y774724D01*
G01X22705269Y854734D02*
G01X22670979Y774724D01*
G01X22659549Y751864D01*
G01X22648119Y740434D01*
G01X22636689Y734846D01*
G01X22630847Y734846D01*
G01X22753021Y820444D02*
G01X22821601Y820444D01*
G01X22821601Y831874D01*
G01X22816013Y843304D01*
G01X22810171Y849146D01*
G01X22798741Y854734D01*
G01X22781723Y854734D01*
G01X22770293Y849146D01*
G01X22758863Y837716D01*
G01X22753021Y820444D01*
G01X22753021Y809014D01*
G01X22758863Y791996D01*
G01X22770293Y780566D01*
G01X22781723Y774724D01*
G01X22798741Y774724D01*
G01X22810171Y780566D01*
G01X22821601Y791996D01*
G01X22869353Y854734D02*
G01X22869353Y774724D01*
G01X22869353Y820444D02*
G01X22875195Y837716D01*
G01X22886625Y849146D01*
G01X22898055Y854734D01*
G01X22915073Y854734D01*

G04 Image Start*
G36*
G01X7187262Y1875396D02*
G01X7081649Y1886877D01*
G01X7038774Y1789671D01*
G01X6995899Y1886877D01*
G01X6890286Y1875396D01*
G01X6953049Y1961121D01*
G01X6913327Y2015376D01*
G01X6944819Y2015376D01*
G01X6984520Y1961121D01*
G01X6944819Y1906867D01*
G01X7011647Y1914131D01*
G01X7011647Y1914131D01*
G01X7038774Y1852638D01*
G01X7065901Y1914131D01*
G01X7132729Y1906867D01*
G01X7093028Y1961121D01*
G01X7132703Y2015350D01*
G01X7065876Y2008086D01*
G01X7038774Y2069605D01*
G01X7011647Y2008111D01*
G01X6944819Y2015376D01*
G01X6913327Y2015376D01*
G01X6890286Y2046846D01*
G01X6995924Y2035366D01*
G01X7038774Y2132571D01*
G01X7081649Y2035366D01*
G01X7187262Y2046846D01*
G01X7124499Y1961121D01*
G01X7187262Y1875396D01*
G37*
G36*
G01X7058269Y2989701D02*
G01X7050529Y2989113D01*
G01X7042686Y2988914D01*
G01X7034843Y2989113D01*
G01X7027102Y2989701D01*
G01X7019475Y2990670D01*
G01X7011970Y2992010D01*
G01X6997364Y2995765D01*
G01X6983362Y3000890D01*
G01X6970039Y3007307D01*
G01X6957474Y3014940D01*
G01X6945742Y3023713D01*
G01X6934920Y3033548D01*
G01X6925084Y3044371D01*
G01X6916311Y3056103D01*
G01X6908678Y3068668D01*
G01X6902261Y3081990D01*
G01X6897137Y3095992D01*
G01X6893382Y3110598D01*
G01X6892041Y3118104D01*
G01X6891072Y3125731D01*
G01X6890484Y3133471D01*
G01X6890286Y3141314D01*
G01X6915686Y3141314D01*
G01X6916343Y3128348D01*
G01X6918270Y3115752D01*
G01X6921405Y3103590D01*
G01X6925682Y3091928D01*
G01X6931036Y3080828D01*
G01X6937405Y3070357D01*
G01X6944723Y3060577D01*
G01X6952925Y3051554D01*
G01X6961949Y3043351D01*
G01X6971728Y3036033D01*
G01X6982200Y3029665D01*
G01X6993299Y3024310D01*
G01X7004961Y3020034D01*
G01X7017123Y3016899D01*
G01X7017123Y3016899D01*
G01X7029719Y3014971D01*
G01X7042686Y3014314D01*
G01X7055652Y3014971D01*
G01X7068248Y3016899D01*
G01X7080410Y3020034D01*
G01X7092072Y3024310D01*
G01X7103172Y3029665D01*
G01X7113643Y3036033D01*
G01X7123423Y3043351D01*
G01X7132446Y3051554D01*
G01X7140649Y3060577D01*
G01X7147966Y3070357D01*
G01X7154335Y3080828D01*
G01X7159690Y3091928D01*
G01X7163966Y3103590D01*
G01X7167101Y3115752D01*
G01X7169029Y3128348D01*
G01X7169686Y3141314D01*
G01X7169029Y3154281D01*
G01X7167101Y3166877D01*
G01X7163966Y3179038D01*
G01X7159690Y3190701D01*
G01X7154335Y3201800D01*
G01X7147966Y3212272D01*
G01X7140649Y3222051D01*
G01X7132446Y3231075D01*
G01X7123423Y3239277D01*
G01X7113643Y3246595D01*
G01X7103172Y3252963D01*
G01X7092072Y3258318D01*
G01X7080410Y3262595D01*
G01X7068248Y3265729D01*
G01X7055652Y3267657D01*
G01X7042686Y3268314D01*
G01X7029719Y3267657D01*
G01X7017123Y3265729D01*
G01X7004961Y3262595D01*
G01X6993299Y3258318D01*
G01X6982200Y3252963D01*
G01X6971728Y3246595D01*
G01X6961949Y3239277D01*
G01X6952925Y3231075D01*
G01X6944723Y3222051D01*
G01X6937405Y3212272D01*
G01X6931036Y3201800D01*
G01X6925682Y3190701D01*
G01X6921405Y3179038D01*
G01X6918270Y3166877D01*
G01X6916343Y3154281D01*
G01X6915686Y3141314D01*
G01X6890286Y3141314D01*
G01X6890484Y3149157D01*
G01X6891072Y3156897D01*
G01X6892041Y3164525D01*
G01X6893382Y3172030D01*
G01X6897137Y3186636D01*
G01X6902261Y3200638D01*
G01X6908678Y3213960D01*
G01X6916311Y3226526D01*
G01X6925084Y3238258D01*
G01X6934920Y3249080D01*
G01X6945742Y3258916D01*
G01X6957474Y3267689D01*
G01X6970039Y3275322D01*
G01X6983362Y3281739D01*
G01X6997364Y3286863D01*
G01X7011970Y3290618D01*
G01X7019475Y3291958D01*
G01X7027102Y3292927D01*
G01X7034843Y3293516D01*
G01X7042686Y3293714D01*
G01X7050529Y3293516D01*
G01X7058269Y3292927D01*
G01X7065896Y3291958D01*
G01X7073402Y3290618D01*
G01X7088007Y3286863D01*
G01X7102010Y3281739D01*
G01X7115332Y3275322D01*
G01X7127897Y3267689D01*
G01X7139629Y3258916D01*
G01X7150451Y3249080D01*
G01X7160287Y3238258D01*
G01X7169060Y3226526D01*
G01X7176693Y3213960D01*
G01X7183110Y3200638D01*
G01X7188235Y3186636D01*
G01X7191990Y3172030D01*
G01X7193330Y3164525D01*
G01X7194299Y3156897D01*
G01X7194887Y3149157D01*
G01X7195086Y3141314D01*
G01X7194887Y3133471D01*
G01X7194299Y3125731D01*
G01X7193330Y3118104D01*
G01X7191990Y3110598D01*
G01X7188235Y3095992D01*
G01X7183110Y3081990D01*
G01X7176693Y3068668D01*
G01X7169060Y3056103D01*
G01X7160287Y3044371D01*
G01X7150451Y3033548D01*
G01X7139629Y3023713D01*
G01X7127897Y3014940D01*
G01X7115332Y3007307D01*
G01X7102010Y3000890D01*
G01X7088007Y2995765D01*
G01X7073402Y2992010D01*
G01X7065896Y2990670D01*
G01X7058269Y2989701D01*
G37*
G36*
G01X7195086Y749763D02*
G01X7111977Y749763D01*
G01X7111977Y666629D01*
G01X6973420Y666629D01*
G01X6973420Y749737D01*
G01X6890286Y749737D01*
G01X6890286Y862894D01*
G01X6915686Y862894D01*
G01X6915686Y775163D01*
G01X6998820Y775163D01*
G01X6998820Y692029D01*
G01X6998820Y692029D01*
G01X7086551Y692029D01*
G01X7086551Y775137D01*
G01X7169686Y775137D01*
G01X7169686Y862894D01*
G01X7086551Y862894D01*
G01X7086551Y946029D01*
G01X6998820Y946029D01*
G01X6998820Y862894D01*
G01X6915686Y862894D01*
G01X6890286Y862894D01*
G01X6890286Y888294D01*
G01X6973420Y888294D01*
G01X6973420Y971429D01*
G01X7111951Y971429D01*
G01X7111951Y888294D01*
G01X7195086Y888294D01*
G01X7195086Y749763D01*
G37*
G36*
G01X7195086Y1552000D02*
G01X7125058Y1399600D01*
G01X7195086Y1247200D01*
G01X7042686Y1317228D01*
G01X6890286Y1247200D01*
G01X6914048Y1298914D01*
G01X6942000Y1298914D01*
G01X7032068Y1340316D01*
G01X7042686Y1345193D01*
G01X7053303Y1340316D01*
G01X7143371Y1298914D01*
G01X7101969Y1388983D01*
G01X7097092Y1399600D01*
G01X7101969Y1410217D01*
G01X7143371Y1500286D01*
G01X7053303Y1458884D01*
G01X7042686Y1454007D01*
G01X7032068Y1458884D01*
G01X6942000Y1500286D01*
G01X6983402Y1410217D01*
G01X6988279Y1399600D01*
G01X6988279Y1399600D01*
G01X6983402Y1388983D01*
G01X6942000Y1298914D01*
G01X6914048Y1298914D01*
G01X6960313Y1399600D01*
G01X6890286Y1552000D01*
G01X7042686Y1481972D01*
G01X7195086Y1552000D01*
G37*
G36*
G01X6890286Y2713143D02*
G01X7195086Y2713143D01*
G01X7042686Y2449186D01*
G01X6904951Y2687743D01*
G01X6934278Y2687743D01*
G01X7042686Y2499986D01*
G01X7151093Y2687743D01*
G01X7151093Y2687743D01*
G01X6934278Y2687743D01*
G01X6904951Y2687743D01*
G01X6890286Y2713143D01*
G37*
G36*
G01X6890286Y3874286D02*
G01X7169686Y3874286D01*
G01X7169686Y3594886D01*
G01X6890286Y3594886D01*
G01X6890286Y3848886D01*
G01X6915686Y3848886D01*
G01X6915686Y3620286D01*
G01X7144286Y3620286D01*
G01X7144286Y3848886D01*
G01X7144286Y3848886D01*
G01X6915686Y3848886D01*
G01X6890286Y3848886D01*
G01X6890286Y3874286D01*
G37*

G04 PolygonModel Start*
G54D17*
G01X6600000Y536000D02*
G01X23505805Y536000D01*
G01X6600000Y1116571D02*
G01X23505805Y1116571D01*
G01X6600000Y1697143D02*
G01X23505805Y1697143D01*
G01X6600000Y2277714D02*
G01X23505805Y2277714D01*
G01X6600000Y2858286D02*
G01X23505805Y2858286D01*
G01X6600000Y3438857D02*
G01X23505805Y3438857D01*
G01X6600000Y4019429D02*
G01X23505805Y4019429D01*
G01X6600000Y4600000D02*
G01X23505805Y4600000D01*
G01X6600000Y4600000D02*
G01X6600000Y561400D01*
G01X8051429Y4600000D02*
G01X8051429Y561400D01*
G01X9465592Y4600000D02*
G01X9465592Y561400D01*
G01X13546501Y4600000D02*
G01X13546501Y561400D01*
G01X15007908Y4600000D02*
G01X15007908Y561400D01*
G01X16439089Y4600000D02*
G01X16439089Y561400D01*
G01X18108268Y4600000D02*
G01X18108268Y561400D01*
G01X20027637Y4600000D02*
G01X20027637Y561400D01*
G01X23505805Y4600000D02*
G01X23505805Y561400D01*

M02*

