G04 Layer: BottomLayer*
G04 EasyEDA Pro v3.2.149, 2026-09-21 22:33:03*
G04 Gerber Generator version 0.3*
G04 Scale: 100 percent, Rotated: No, Reflected: No*
G04 Dimensions in millimeters*
G04 Leading zeros omitted, absolute positions, 4 integers and 5 decimals*
G04 Generated by one-click*
G04 Object Configs: Pad,Via,Track,Text,Image,Dimension,BoardOutline,BoardCutout,CopperFilled,SolidRegion,FPCStiffener,Line,PlaneZone,ComponentProperty,ComponentSilkscreen,TearDrop*
G04 Layer Configs: 1,2,3,4,5,6,7,8,9,10,11,13,14,56*
G04 Copper Areas: 0*
%FSLAX45Y45*%
%MOMM*%
%AMOval*1,1,$1,$2,$3*1,1,$1,$4,$5*20,1,$1,$2,$3,$4,$5,0*%
%ADD10Oval,6.0X-1.06066X-1.06066X1.06066X1.06066*%
%ADD11C,2.4*%
%ADD12C,0.61*%
%ADD13C,0.6185*%
G75*


G04 Pad Start*
G54D10*
G01X900000Y900000D03*
G01X3700000Y3700000D03*
G54D11*
G01X1917700Y2044700D03*
G01X2552700Y1790700D03*
G04 Pad End*

G04 Via Start*
G54D12*
G01X787400Y2476500D03*
G01X393700Y3251200D03*
G01X520700Y3251200D03*
G01X800100Y3251200D03*
G01X939800Y3251200D03*
G01X1079500Y3251200D03*
G01X165100Y2463800D03*
G01X279400Y2463800D03*
G01X393700Y2463800D03*
G01X660400Y3251200D03*
G01X165100Y2578100D03*
G01X279400Y2578100D03*
G01X393700Y2578100D03*
G01X787400Y2578100D03*
G01X787400Y2679700D03*
G01X279400Y2679700D03*
G01X165100Y2679700D03*
G01X165100Y2781300D03*
G01X279400Y2781300D03*
G01X165100Y2895600D03*
G01X279400Y2895600D03*
G01X787400Y2895600D03*
G01X673100Y2895600D03*
G01X673100Y2476500D03*
G01X673100Y2578100D03*
G01X673100Y2679700D03*
G01X673100Y2781300D03*
G01X787400Y2781300D03*
G01X393700Y2679700D03*
G01X393700Y2781300D03*
G01X393700Y2895600D03*
G01X533400Y2895600D03*
G01X393700Y3365500D03*
G01X520700Y3365500D03*
G01X939800Y3365500D03*
G01X1079500Y3365500D03*
G01X393700Y3479800D03*
G01X520700Y3479800D03*
G01X939800Y3479800D03*
G01X1079500Y3479800D03*
G01X393700Y3594100D03*
G01X520700Y3594100D03*
G01X939800Y3594100D03*
G01X1079500Y3594100D03*
G01X393700Y3708400D03*
G01X520700Y3708400D03*
G01X660400Y3708400D03*
G01X800100Y3708400D03*
G01X939800Y3708400D03*
G01X1079500Y3708400D03*
G01X1155700Y2895600D03*
G01X1612900Y2578100D03*
G01X1612900Y2781300D03*
G01X1612900Y2895600D03*
G01X1498600Y2476500D03*
G01X1498600Y2578100D03*
G01X1498600Y2781300D03*
G01X1498600Y2895600D03*
G01X1384300Y2476500D03*
G01X1384300Y2578100D03*
G01X1612900Y2476500D03*
G01X1270000Y2895600D03*
G01X1384300Y2781300D03*
G01X1270000Y2476500D03*
G01X1155700Y2476500D03*
G01X1384300Y2895600D03*
G01X1041400Y2578100D03*
G01X1041400Y2679700D03*
G01X1041400Y2781300D03*
G01X1041400Y2476500D03*
G01X1041400Y2895600D03*
G01X1041400Y1790700D03*
G01X1041400Y1892300D03*
G01X1041400Y2006600D03*
G01X1041400Y2222500D03*
G01X1155700Y1790700D03*
G01X1155700Y2222500D03*
G01X1270000Y1790700D03*
G01X1270000Y1892300D03*
G01X1270000Y2222500D03*
G01X1270000Y2006600D03*
G01X1155700Y2006600D03*
G01X1155700Y1892300D03*
G01X1498600Y1790700D03*
G01X1612900Y1790700D03*
G01X1384300Y1790700D03*
G01X1384300Y2006600D03*
G01X1384300Y1892300D03*
G01X1612900Y2222500D03*
G01X1498600Y2222500D03*
G01X1384300Y2222500D03*
G01X2794000Y1485900D03*
G01X2908300Y1485900D03*
G01X3022600Y1485900D03*
G01X2794000Y1587500D03*
G01X2908300Y1587500D03*
G01X3022600Y1587500D03*
G01X2794000Y1384300D03*
G01X2908300Y1384300D03*
G01X3022600Y1384300D03*
G01X3136900Y1384300D03*
G01X3136900Y1485900D03*
G01X3136900Y1587500D03*
G01X3136900Y1689100D03*
G01X3136900Y1790700D03*
G01X3136900Y1892300D03*
G01X3136900Y2004112D03*
G01X3136900Y2105712D03*
G01X3136900Y2209800D03*
G01X2794000Y2106956D03*
G01X2794000Y2211044D03*
G01X2794000Y2005356D03*
G01X3022600Y2106956D03*
G01X3022600Y2211044D03*
G01X3022600Y2005356D03*
G04 Via End*

M02*

