G04 Layer: BottomSilkscreenLayer*
G04 EasyEDA Pro v3.2.149, 2026-09-21 22:33:03*
G04 Gerber Generator version 0.3*
G04 Scale: 100 percent, Rotated: No, Reflected: No*
G04 Dimensions in millimeters*
G04 Leading zeros omitted, absolute positions, 4 integers and 5 decimals*
G04 Generated by one-click*
G04 Object Configs: Pad,Via,Track,Text,Image,Dimension,BoardOutline,BoardCutout,CopperFilled,SolidRegion,FPCStiffener,Line,PlaneZone,ComponentProperty,ComponentSilkscreen,TearDrop*
G04 Layer Configs: 1,2,3,4,5,6,7,8,9,10,11,13,14,56*
G04 Copper Areas: 0*
%FSLAX45Y45*%
%MOMM*%
%ADD10C,0.203*%
%ADD11C,0.254*%
%ADD12C,0.6295*%
G75*


G04 Text Start*
G54D10*
G01X3983990Y1116330D02*
G01X3992880Y1134110D01*
G01X4010660Y1151890D01*
G01X4028440Y1160780D01*
G01X4064000Y1160780D01*
G01X4081780Y1151890D01*
G01X4099560Y1134110D01*
G01X4108450Y1116330D01*
G01X4117340Y1089660D01*
G01X4117340Y1045210D01*
G01X4108450Y1018540D01*
G01X4099560Y1000760D01*
G01X4081780Y982980D01*
G01X4064000Y974090D01*
G01X4028440Y974090D01*
G01X4010660Y982980D01*
G01X3992880Y1000760D01*
G01X3983990Y1018540D01*
G01X3920998Y1160780D02*
G01X3920998Y974090D01*
G01X3920998Y974090D02*
G01X3814318Y974090D01*
G01X3751326Y1160780D02*
G01X3751326Y974090D01*
G01X3554984Y1116330D02*
G01X3563874Y1134110D01*
G01X3581654Y1151890D01*
G01X3599434Y1160780D01*
G01X3634994Y1160780D01*
G01X3652774Y1151890D01*
G01X3670554Y1134110D01*
G01X3679444Y1116330D01*
G01X3688334Y1089660D01*
G01X3688334Y1045210D01*
G01X3679444Y1018540D01*
G01X3670554Y1000760D01*
G01X3652774Y982980D01*
G01X3634994Y974090D01*
G01X3599434Y974090D01*
G01X3581654Y982980D01*
G01X3563874Y1000760D01*
G01X3554984Y1018540D01*
G01X3491992Y1160780D02*
G01X3491992Y974090D01*
G01X3367532Y1160780D02*
G01X3491992Y1036320D01*
G01X3447542Y1080770D02*
G01X3367532Y974090D01*
G01X3304540Y911860D02*
G01X3144520Y911860D01*
G01X3081528Y1160780D02*
G01X3081528Y974090D01*
G01X3081528Y1160780D02*
G01X3010408Y974090D01*
G01X2939288Y1160780D02*
G01X3010408Y974090D01*
G01X2939288Y1160780D02*
G01X2939288Y974090D01*
G01X2876296Y1160780D02*
G01X2876296Y974090D01*
G01X2876296Y1160780D02*
G01X2760726Y1160780D01*
G01X2876296Y1071880D02*
G01X2805176Y1071880D01*
G01X2876296Y974090D02*
G01X2760726Y974090D01*
G01X4117340Y793750D02*
G01X4064000Y669290D01*
G01X4010660Y793750D02*
G01X4064000Y669290D01*
G01X3894328Y855980D02*
G01X3920998Y847090D01*
G01X3938778Y820420D01*
G01X3947668Y775970D01*
G01X3947668Y749300D01*
G01X3938778Y704850D01*
G01X3920998Y678180D01*
G01X3894328Y669290D01*
G01X3876548Y669290D01*
G01X3849878Y678180D01*
G01X3832098Y704850D01*
G01X3823208Y749300D01*
G01X3823208Y775970D01*
G01X3832098Y820420D01*
G01X3849878Y847090D01*
G01X3876548Y855980D01*
G01X3894328Y855980D01*
G01X3751326Y713740D02*
G01X3760216Y704850D01*
G01X3751326Y695960D01*
G01X3742436Y704850D01*
G01X3751326Y713740D01*
G01X3670554Y811530D02*
G01X3670554Y820420D01*
G01X3661664Y838200D01*
G01X3652774Y847090D01*
G01X3634994Y855980D01*
G01X3599434Y855980D01*
G01X3581654Y847090D01*
G01X3572764Y838200D01*
G01X3563874Y820420D01*
G01X3563874Y802640D01*
G01X3572764Y784860D01*
G01X3590544Y758190D01*
G01X3679444Y669290D01*
G01X3554984Y669290D01*
G01X3491992Y607060D02*
G01X3331972Y607060D01*
G01X3260090Y811530D02*
G01X3260090Y820420D01*
G01X3251200Y838200D01*
G01X3242310Y847090D01*
G01X3224530Y855980D01*
G01X3188970Y855980D01*
G01X3171190Y847090D01*
G01X3162300Y838200D01*
G01X3153410Y820420D01*
G01X3153410Y802640D01*
G01X3162300Y784860D01*
G01X3180080Y758190D01*
G01X3268980Y669290D01*
G01X3144520Y669290D01*
G01X3028188Y855980D02*
G01X3054858Y847090D01*
G01X3072638Y820420D01*
G01X3081528Y775970D01*
G01X3081528Y749300D01*
G01X3072638Y704850D01*
G01X3054858Y678180D01*
G01X3028188Y669290D01*
G01X3010408Y669290D01*
G01X2983738Y678180D01*
G01X2965958Y704850D01*
G01X2957068Y749300D01*
G01X2957068Y775970D01*
G01X2965958Y820420D01*
G01X2983738Y847090D01*
G01X3010408Y855980D01*
G01X3028188Y855980D01*
G01X2885186Y811530D02*
G01X2885186Y820420D01*
G01X2876296Y838200D01*
G01X2867406Y847090D01*
G01X2849626Y855980D01*
G01X2814066Y855980D01*
G01X2796286Y847090D01*
G01X2787396Y838200D01*
G01X2778506Y820420D01*
G01X2778506Y802640D01*
G01X2787396Y784860D01*
G01X2805176Y758190D01*
G01X2894076Y669290D01*
G01X2769616Y669290D01*
G01X2599944Y829310D02*
G01X2608834Y847090D01*
G01X2635504Y855980D01*
G01X2653284Y855980D01*
G01X2679954Y847090D01*
G01X2697734Y820420D01*
G01X2706624Y775970D01*
G01X2706624Y731520D01*
G01X2697734Y695960D01*
G01X2679954Y678180D01*
G01X2653284Y669290D01*
G01X2644394Y669290D01*
G01X2617724Y678180D01*
G01X2599944Y695960D01*
G01X2591054Y722630D01*
G01X2591054Y731520D01*
G01X2599944Y758190D01*
G01X2617724Y775970D01*
G01X2644394Y784860D01*
G01X2653284Y784860D01*
G01X2679954Y775970D01*
G01X2697734Y758190D01*
G01X2706624Y731520D01*
G01X2528062Y607060D02*
G01X2368042Y607060D01*
G01X2251710Y855980D02*
G01X2278380Y847090D01*
G01X2296160Y820420D01*
G01X2305050Y775970D01*
G01X2305050Y749300D01*
G01X2296160Y704850D01*
G01X2278380Y678180D01*
G01X2251710Y669290D01*
G01X2233930Y669290D01*
G01X2207260Y678180D01*
G01X2189480Y704850D01*
G01X2180590Y749300D01*
G01X2180590Y775970D01*
G01X2189480Y820420D01*
G01X2207260Y847090D01*
G01X2233930Y855980D01*
G01X2251710Y855980D01*
G01X1993138Y855980D02*
G01X2082038Y669290D01*
G01X2117598Y855980D02*
G01X1993138Y855980D01*
G01X1930146Y607060D02*
G01X1770126Y607060D01*
G01X1698244Y811530D02*
G01X1698244Y820420D01*
G01X1689354Y838200D01*
G01X1680464Y847090D01*
G01X1662684Y855980D01*
G01X1627124Y855980D01*
G01X1609344Y847090D01*
G01X1600454Y838200D01*
G01X1591564Y820420D01*
G01X1591564Y802640D01*
G01X1600454Y784860D01*
G01X1618234Y758190D01*
G01X1707134Y669290D01*
G01X1582674Y669290D01*
G01X1404112Y793750D02*
G01X1413002Y767080D01*
G01X1430782Y749300D01*
G01X1457452Y740410D01*
G01X1466342Y740410D01*
G01X1493012Y749300D01*
G01X1510792Y767080D01*
G01X1519682Y793750D01*
G01X1519682Y802640D01*
G01X1510792Y829310D01*
G01X1493012Y847090D01*
G01X1466342Y855980D01*
G01X1457452Y855980D01*
G01X1430782Y847090D01*
G01X1413002Y829310D01*
G01X1404112Y793750D01*
G01X1404112Y749300D01*
G01X1413002Y704850D01*
G01X1430782Y678180D01*
G01X1457452Y669290D01*
G01X1475232Y669290D01*
G01X1501902Y678180D01*
G01X1510792Y695960D01*
G01X4117340Y551180D02*
G01X4117340Y364490D01*
G01X4117340Y551180D02*
G01X4037330Y551180D01*
G01X4010660Y542290D01*
G01X4001770Y533400D01*
G01X3992880Y515620D01*
G01X3992880Y497840D01*
G01X4001770Y480060D01*
G01X4010660Y471170D01*
G01X4037330Y462280D01*
G01X4117340Y462280D02*
G01X4037330Y462280D01*
G01X4010660Y453390D01*
G01X4001770Y444500D01*
G01X3992880Y426720D01*
G01X3992880Y400050D01*
G01X4001770Y382270D01*
G01X4010660Y373380D01*
G01X4037330Y364490D01*
G01X4117340Y364490D01*
G01X3929888Y302260D02*
G01X3769868Y302260D01*
G01X3617976Y551180D02*
G01X3617976Y408940D01*
G01X3626866Y382270D01*
G01X3635756Y373380D01*
G01X3653536Y364490D01*
G01X3671316Y364490D01*
G01X3689096Y373380D01*
G01X3697986Y382270D01*
G01X3706876Y408940D01*
G01X3706876Y426720D01*
G01X3510534Y488950D02*
G01X3528314Y480060D01*
G01X3546094Y462280D01*
G01X3554984Y435610D01*
G01X3554984Y417830D01*
G01X3546094Y391160D01*
G01X3528314Y373380D01*
G01X3510534Y364490D01*
G01X3483864Y364490D01*
G01X3466084Y373380D01*
G01X3448304Y391160D01*
G01X3439414Y417830D01*
G01X3439414Y435610D01*
G01X3448304Y462280D01*
G01X3466084Y480060D01*
G01X3483864Y488950D01*
G01X3510534Y488950D01*
G01X3376422Y551180D02*
G01X3376422Y364490D01*
G01X3376422Y453390D02*
G01X3349752Y480060D01*
G01X3331972Y488950D01*
G01X3305302Y488950D01*
G01X3287522Y480060D01*
G01X3278632Y453390D01*
G01X3278632Y364490D01*
G01X3215640Y488950D02*
G01X3215640Y364490D01*
G01X3215640Y453390D02*
G01X3188970Y480060D01*
G01X3171190Y488950D01*
G01X3144520Y488950D01*
G01X3126740Y480060D01*
G01X3117850Y453390D01*
G01X3117850Y364490D01*
G01X2957068Y462280D02*
G01X2965958Y480060D01*
G01X2992628Y488950D01*
G01X3019298Y488950D01*
G01X3045968Y480060D01*
G01X3054858Y462280D01*
G01X3045968Y444500D01*
G01X3028188Y435610D01*
G01X2983738Y426720D01*
G01X2965958Y417830D01*
G01X2957068Y400050D01*
G01X2957068Y391160D01*
G01X2965958Y373380D01*
G01X2992628Y364490D01*
G01X3019298Y364490D01*
G01X3045968Y373380D01*
G01X3054858Y391160D01*
G01X2867406Y551180D02*
G01X2867406Y400050D01*
G01X2858516Y373380D01*
G01X2840736Y364490D01*
G01X2822956Y364490D01*
G01X2894076Y488950D02*
G01X2831846Y488950D01*
G01X2715514Y488950D02*
G01X2733294Y480060D01*
G01X2751074Y462280D01*
G01X2759964Y435610D01*
G01X2759964Y417830D01*
G01X2751074Y391160D01*
G01X2733294Y373380D01*
G01X2715514Y364490D01*
G01X2688844Y364490D01*
G01X2671064Y373380D01*
G01X2653284Y391160D01*
G01X2644394Y417830D01*
G01X2644394Y435610D01*
G01X2653284Y462280D01*
G01X2671064Y480060D01*
G01X2688844Y488950D01*
G01X2715514Y488950D01*
G01X2581402Y488950D02*
G01X2581402Y364490D01*
G01X2581402Y453390D02*
G01X2554732Y480060D01*
G01X2536952Y488950D01*
G01X2510282Y488950D01*
G01X2492502Y480060D01*
G01X2483612Y453390D01*
G01X2483612Y364490D01*
G04 Text End*

G04 PolygonModel Start*
G54D11*
G01X1518699Y1518699D02*
G01X3078701Y1518699D01*
G01X1518699Y3078701D02*
G01X3078701Y3078701D01*
G01X1518699Y1518699D02*
G01X1518699Y3078701D01*
G01X3078701Y1518699D02*
G01X3078701Y3078701D01*

G04 Rect Start*
G01X1518699Y1518699D02*
G01X1518699Y3078701D01*
G01X3078701Y3078701D01*
G01X3078701Y1518699D01*
G01X1518699Y1518699D01*
G04 Rect End*

G04 Circle Start*
G01X2032000Y2298700D02*
G03X2565400Y2298700I266700J0D01*
G03X2032000Y2298700I-266700J0D01*
G04 Circle End*

M02*

